<svg width="60" height="60" viewBox="0 0 60 60" fill="none" xmlns="http://www.w3.org/2000/svg">
<path fill-rule="evenodd" clip-rule="evenodd" d="M44.1312 50.13C43.5512 49.55 43.2611 48.86 43.2611 48.06V20.94L32.4002 35.4C31.8001 36.2 31.0001 36.6 30 36.6C28.9999 36.6 28.1998 36.2 27.5998 35.4L16.7989 20.94V48.06C16.7989 48.86 16.4988 49.55 15.8988 50.13C15.2987 50.71 14.5987 51 13.7986 51C12.9985 51 12.2985 50.71 11.6984 50.13C11.0984 49.55 10.7983 48.86 10.7983 48.06V11.94C10.7983 11.14 11.0884 10.45 11.6684 9.87C12.2485 9.29 12.9785 9 13.8586 9C14.8187 9 15.5988 9.4 16.1988 10.2L30 28.62L43.8612 10.2C44.4212 9.4 45.2013 9 46.2014 9C47.0815 9 47.8015 9.29 48.3616 9.87C48.9216 10.45 49.2016 11.14 49.2016 11.94V48.06C49.2016 48.86 48.9116 49.55 48.3316 50.13C47.7515 50.71 47.0415 51 46.2014 51C45.4013 51 44.7113 50.71 44.1312 50.13Z" fill="white"/>
</svg>
