<svg width="4440" height="1500" viewBox="0 0 4440 1500" fill="none" xmlns="http://www.w3.org/2000/svg">
<g clip-path="url(#clip0_0_340)">
<path fill-rule="evenodd" clip-rule="evenodd" d="M1869.57 1009.06C1862.1 1001.58 1858.36 992.691 1858.36 982.381V632.875L1718.39 819.227C1710.66 829.537 1700.35 834.692 1687.46 834.692C1674.57 834.692 1664.26 829.537 1656.53 819.227L1517.33 632.875V982.381C1517.33 992.691 1513.46 1001.58 1505.73 1009.06C1498 1016.53 1488.98 1020.27 1478.67 1020.27C1468.35 1020.27 1459.33 1016.53 1451.6 1009.06C1443.87 1001.58 1440 992.691 1440 982.381V516.889C1440 506.579 1443.74 497.687 1451.21 490.212C1458.69 482.737 1468.1 479 1479.44 479C1491.81 479 1501.86 484.155 1509.6 494.465L1687.46 731.85L1866.09 494.465C1873.31 484.155 1883.36 479 1896.25 479C1907.59 479 1916.87 482.737 1924.09 490.212C1931.31 497.687 1934.92 506.579 1934.92 516.889V982.381C1934.92 992.691 1931.18 1001.58 1923.71 1009.06C1916.23 1016.53 1907.08 1020.27 1896.25 1020.27C1885.94 1020.27 1877.05 1016.53 1869.57 1009.06Z" fill="black"/>
<path fill-rule="evenodd" clip-rule="evenodd" d="M2448.35 967.696C2449.9 971.82 2450.67 976.717 2450.67 982.388C2450.67 992.182 2447.32 1000.95 2440.62 1008.68C2433.92 1016.41 2424.64 1020.28 2412.78 1020.28C2405.56 1020.28 2398.6 1017.7 2391.9 1012.54C2385.2 1007.39 2380.04 1001.72 2376.43 995.533L2227.18 620.533L2076.39 995.533C2073.29 1001.72 2068.4 1007.39 2061.69 1012.54C2054.99 1017.7 2048.03 1020.28 2040.81 1020.28C2029.47 1020.28 2020.32 1016.28 2013.36 1008.29C2006.4 1000.3 2002.92 991.667 2002.92 982.388C2002.92 976.717 2003.69 971.82 2005.24 967.696C2034.63 892.948 2160.94 578.492 2190.84 503.744C2194.45 497.043 2199.47 491.243 2205.92 486.346C2212.36 481.449 2219.45 479 2227.18 479C2234.4 479 2241.23 481.449 2247.68 486.346C2254.12 491.243 2259.15 497.043 2262.76 503.744L2448.35 967.696Z" fill="black"/>
<path fill-rule="evenodd" clip-rule="evenodd" d="M2684.46 761.858C2666.53 773.058 2661.09 796.657 2672.28 814.573L2789.58 1002.29C2800.77 1020.19 2824.38 1025.65 2842.3 1014.45C2860.22 1003.25 2865.67 979.655 2854.47 961.738L2765.04 818.622C2781.76 810.007 2797.48 798.158 2809.84 785.793C2822.21 773.429 2832.26 759.261 2839.98 744.063C2845.14 733.759 2849.13 723.585 2851.96 713.538C2854.8 703.492 2856.99 694.477 2858.53 686.491C2860.08 678.506 2860.98 671.808 2861.24 666.399C2861.5 660.989 2861.62 657.77 2861.62 656.739C2861.62 621.706 2853.51 590.667 2837.28 563.619C2821.05 536.572 2798.77 515.578 2770.43 500.638C2760.12 496.001 2749.95 492.266 2739.9 489.433C2729.85 486.599 2720.84 484.409 2712.85 482.864C2704.86 481.318 2698.17 480.288 2692.76 479.773C2687.35 479.258 2684.13 479 2683.1 479H2556.35C2546.05 479 2537.16 482.735 2529.69 490.205C2522.22 497.676 2518.48 506.562 2518.48 516.866V982.079C2518.48 992.383 2522.22 1001.27 2529.69 1008.74C2537.16 1016.21 2546.05 1019.95 2556.35 1019.95C2567.17 1019.95 2576.32 1016.21 2583.79 1008.74C2591.26 1001.27 2594.99 992.383 2594.99 982.079V556.278H2683.09C2684.18 556.278 2694.43 556.793 2700.09 557.824C2701.01 558.007 2722.63 563.233 2716.71 561.687C2715.48 561.368 2728.96 565.551 2735.66 568.642C2768.11 585.128 2784.34 614.494 2784.34 656.739C2784.34 656.739 2784.21 659.186 2783.95 662.535C2783.89 663.319 2783.05 670.134 2782.02 675.286C2781.73 676.766 2779.57 686.234 2777.77 692.673C2777.32 694.274 2773.52 705.424 2770.43 711.606C2755.54 737.443 2732.27 752.293 2700.64 756.17C2699.91 756.258 2699.26 756.375 2698.67 756.519C2693.77 757.303 2688.93 759.061 2684.46 761.858Z" fill="black"/>
<path fill-rule="evenodd" clip-rule="evenodd" d="M3188.5 560.191C3088.14 560.191 3006.78 645.19 3006.78 750.043C3006.78 854.889 3088.13 939.884 3188.48 939.895L3317.54 939.891L3254.8 877.226C3240.09 862.517 3240.07 838.674 3254.8 823.951C3269.52 809.229 3293.38 809.242 3308.09 823.951L3434.54 950.595C3442.51 957.929 3447.49 968.443 3447.49 980.121C3447.49 1002.29 3429.51 1020.27 3407.3 1020.27L3188.48 1020.27C3045.6 1020.04 2929.85 898.962 2929.85 749.635C2929.85 600.167 3045.82 479 3188.88 479C3331.94 479 3447.92 600.167 3447.92 749.635C3447.92 754.876 3447.49 839.842 3447.49 839.842C3447.49 861.197 3430.19 878.509 3408.84 878.509C3387.48 878.509 3370.18 861.195 3370.18 839.842V749.635C3370 644.97 3288.73 560.191 3188.5 560.191Z" fill="black"/>
<path fill-rule="evenodd" clip-rule="evenodd" d="M3604.7 993.98C3576.35 976.453 3554.18 950.678 3538.2 916.655C3532.53 904.799 3528.27 893.329 3525.44 882.246C3522.6 871.163 3520.41 861.24 3518.86 852.476C3517.32 843.713 3516.41 836.367 3516.16 830.439C3515.9 824.511 3515.77 820.773 3515.77 819.227V516.889C3515.77 506.579 3519.64 497.687 3527.37 490.212C3535.1 482.737 3544.13 479 3554.44 479C3564.75 479 3573.64 482.737 3581.12 490.212C3588.59 497.687 3592.33 506.579 3592.33 516.889V819.227C3592.33 821.289 3592.71 825.799 3593.49 832.759C3594.26 839.718 3595.94 847.708 3598.51 856.729C3601.09 865.75 3604.96 875.416 3610.11 885.726C3615.27 896.036 3621.97 905.443 3630.22 913.949C3638.47 922.455 3648.78 929.414 3661.15 934.827C3673.53 940.239 3688.22 942.946 3705.23 942.946C3729.98 942.946 3749.7 937.404 3764.39 926.321C3779.08 915.238 3790.3 902.608 3798.03 888.432C3805.76 874.256 3810.92 860.338 3813.49 846.677C3816.07 833.016 3817.36 823.866 3817.36 819.227V516.889C3817.36 506.579 3821.23 497.687 3828.96 490.212C3836.69 482.737 3845.72 479 3856.03 479C3866.34 479 3875.23 482.737 3882.71 490.212C3890.18 497.687 3893.92 506.579 3893.92 516.889V819.227C3893.92 820.773 3893.79 824.511 3893.53 830.439C3893.27 836.367 3892.5 843.713 3891.21 852.476C3889.92 861.24 3887.73 871.163 3884.64 882.246C3881.55 893.329 3877.42 904.799 3872.27 916.655C3856.28 950.678 3834.12 976.453 3805.76 993.98C3777.41 1011.51 3743.9 1020.27 3705.23 1020.27C3666.57 1020.27 3633.06 1011.51 3604.7 993.98Z" fill="black"/>
<path fill-rule="evenodd" clip-rule="evenodd" d="M3998.86 1020.31C3988.55 1020.31 3979.65 1016.57 3972.18 1009.09C3964.7 1001.62 3960.96 992.725 3960.96 982.414V516.891C3960.96 506.581 3964.7 497.688 3972.18 490.213C3979.65 482.738 3988.55 479 3998.86 479C4009.17 479 4018.19 482.738 4025.93 490.213C4033.66 497.688 4037.53 506.581 4037.53 516.891V982.414C4037.53 992.725 4033.66 1001.62 4025.93 1009.09C4018.19 1016.57 4009.17 1020.31 3998.86 1020.31V1020.31Z" fill="black"/>
<path fill-rule="evenodd" clip-rule="evenodd" d="M4297.81 696.979C4307.1 700.335 4317.56 704.981 4329.17 710.918C4340.79 716.854 4352.79 723.952 4365.18 732.212C4377.57 740.472 4389.19 750.022 4400.03 760.863C4410.87 771.704 4419.91 784.093 4427.14 798.032C4434.37 811.97 4438.75 827.199 4440.3 843.718V852.236C4440.3 873.918 4436.04 894.954 4427.52 915.346C4419.01 935.737 4407.26 953.418 4392.29 968.389C4375.77 984.908 4356.28 997.685 4333.82 1006.72C4311.36 1015.75 4287.48 1020.27 4262.19 1020.27H4255.99C4223.47 1019.24 4194.17 1010.2 4168.1 993.168C4142.02 976.132 4122.28 953.16 4108.85 924.251C4106.79 920.121 4105.75 914.7 4105.75 907.989C4105.75 900.762 4107.56 893.922 4111.18 887.469C4114.79 881.016 4120.21 876.241 4127.44 873.144C4132.09 870.563 4137.51 869.272 4143.7 869.272C4150.93 869.272 4157.9 871.208 4164.61 875.08C4171.32 878.951 4176.23 884.501 4179.32 891.728C4186.55 907.215 4197.14 919.476 4211.08 928.51C4225.01 937.544 4241.02 942.319 4259.09 942.835H4262.96C4293.42 942.835 4317.94 933.543 4336.53 914.959C4354.6 896.89 4363.64 875.983 4363.64 852.236V849.139C4362.6 838.814 4357.96 828.877 4349.7 819.326C4341.44 809.776 4331.76 801.258 4320.66 793.773C4309.56 786.287 4297.94 779.835 4285.81 774.414C4273.67 768.994 4263.74 764.993 4255.99 762.412C4255.48 762.412 4254.7 762.154 4253.67 761.637C4252.64 761.121 4251.6 760.863 4250.57 760.863C4173.64 732.986 4135.18 684.719 4135.18 616.06V609.865C4136.22 590.248 4140.86 572.18 4149.12 555.661C4157.38 539.141 4169.77 524.945 4186.29 513.071C4199.72 502.23 4215.46 493.842 4233.53 487.905C4251.6 481.968 4270.45 479 4290.07 479H4297.81C4312.78 479.516 4328.27 482.872 4344.27 489.067C4360.28 495.261 4374.99 503.005 4388.42 512.297C4392.55 516.427 4396.16 521.202 4399.26 526.622C4402.36 532.043 4403.9 537.334 4403.9 542.497C4403.9 552.305 4401.07 560.049 4395.39 565.727C4387.64 576.052 4377.32 581.214 4364.41 581.214C4360.8 581.214 4356.92 580.569 4352.79 579.278C4348.66 577.988 4344.79 576.052 4341.18 573.471C4334.98 568.824 4327.62 564.953 4319.11 561.855C4310.59 558.758 4302.46 556.951 4294.71 556.435H4289.29C4267.61 556.435 4249.41 561.726 4234.7 572.309C4219.98 582.892 4212.37 596.443 4211.85 612.962V616.06C4211.85 627.417 4213.66 636.967 4217.27 644.711C4220.88 652.454 4225.79 659.036 4231.98 664.457C4238.18 669.877 4245.28 674.523 4253.28 678.395C4261.28 682.267 4269.41 686.009 4277.68 689.623C4282.06 691.43 4288.52 693.624 4297.81 696.979Z" fill="black"/>
<circle cx="120.674" cy="120.674" r="120.674" transform="matrix(-1 0 0 1 1051.01 847.416)" fill="#1976D2"/>
<path fill-rule="evenodd" clip-rule="evenodd" d="M815.65 887.121C838.545 870.922 866.503 861.403 896.684 861.403C974.258 861.403 1037.14 924.289 1037.14 1001.86C1037.14 1032.04 1027.62 1060 1011.43 1082.9C1047.38 1057.46 1070.85 1015.55 1070.85 968.155C1070.85 890.581 1007.97 827.695 930.392 827.695C882.998 827.695 841.087 851.168 815.65 887.121Z" fill="white" fill-opacity="0.3"/>
<path fill-rule="evenodd" clip-rule="evenodd" d="M769.887 967.753C769.887 1056.55 841.874 1128.54 930.674 1128.54C971.613 1128.54 1008.98 1113.24 1037.36 1088.05L1055.97 1106.65C1059.11 1109.79 1064.15 1109.79 1068.83 1106.37L1094.98 1080.22C1099.38 1075.82 1101.47 1072.18 1097.78 1068.6L1072.59 1043.41C1084.63 1020.86 1091.46 995.103 1091.46 967.753C1091.46 878.953 1019.47 806.967 930.674 806.967C841.874 806.967 769.887 878.953 769.887 967.753ZM930.337 1088.76C863.69 1088.76 809.663 1034.74 809.663 968.09C809.663 901.444 863.69 847.416 930.337 847.416C996.983 847.416 1051.01 901.444 1051.01 968.09C1051.01 1034.74 996.983 1088.76 930.337 1088.76Z" fill="#201818"/>
<path fill-rule="evenodd" clip-rule="evenodd" d="M351.333 1294.04C327.605 1319.12 310.995 1326.58 279.131 1326.92C252.013 1326.92 238.114 1322.51 214.386 1306.24C201.505 1297.09 173.37 1262.85 167.268 1248.28C163.2 1239.12 168.624 1288.95 173.709 1308.27C193.369 1383.53 266.589 1460.48 341.503 1484.88C377.773 1496.75 402.858 1500.14 438.451 1498.1C475.06 1495.73 476.755 1495.39 503.873 1489.29C524.551 1484.2 581.499 1458.44 606.923 1442.17C631.668 1426.24 662.176 1400.14 666.583 1390.98L670.312 1382.51L676.074 1391.32C694.04 1417.76 763.192 1464.2 810.649 1481.15C835.394 1489.97 881.495 1498.44 909.63 1498.78C1028.61 1501.49 1137.42 1421.15 1167.59 1309.29C1175.05 1281.49 1179.46 1248.28 1175.73 1248.28C1174.37 1248.28 1169.63 1255.39 1165.22 1263.87C1141.15 1308.95 1090.98 1334.38 1043.87 1325.9C1020.48 1321.49 1008.95 1313.7 975.053 1277.77C930.647 1230.65 888.275 1203.53 850.309 1197.09C830.309 1194.04 790.988 1195.06 772.683 1199.46C760.141 1202.51 728.277 1217.43 719.802 1224.21C708.616 1233.36 682.854 1259.8 677.769 1267.26C673.362 1274.38 672.345 1274.04 645.227 1246.92C627.6 1229.29 610.312 1216.07 598.109 1210.31C569.974 1196.41 524.551 1190.99 488.619 1197.09C449.976 1203.53 409.298 1232 351.333 1294.04Z" fill="#201818"/>
<path fill-rule="evenodd" clip-rule="evenodd" d="M1124.33 547.845C1175.84 537.818 1267.82 520.895 1285.13 520.895C1310.07 520.895 1343.49 536.249 1341.49 569.211C1339.49 602.173 1318.58 621.873 1300.26 642.566C1286.5 662.326 1208.53 732.01 1141.63 739.102C1063.82 748.114 936.64 756.049 670.946 761.791C670.893 761.797 670.84 761.795 670.786 761.794C670.733 761.795 670.68 761.797 670.627 761.798C404.933 756.049 277.758 748.114 199.942 739.102C133.038 732.01 55.0779 662.326 41.3108 642.566C22.9944 621.873 2.08465 602.173 0.0856394 569.211C-1.91338 536.249 31.5028 520.895 56.4466 520.895C73.7145 520.895 165.351 537.749 216.927 547.783V487.69V277.395C216.927 108.912 420.055 0 670.627 0C921.198 0 1124.33 108.912 1124.33 277.395V487.69V547.845V547.845Z" fill="#201818"/>
<path fill-rule="evenodd" clip-rule="evenodd" d="M233.933 458.24C499.001 522.34 842.646 522.31 1107.64 458.147V546.518C842.694 610.62 498.917 610.636 233.933 546.568V458.24Z" fill="#606060"/>
</g>
<defs>
<clipPath id="clip0_0_340">
<rect width="4440" height="1500" fill="white"/>
</clipPath>
</defs>
</svg>
