<svg width="60" height="60" viewBox="0 0 60 60" fill="none" xmlns="http://www.w3.org/2000/svg">
<path d="M31.883 6.0331C35.9536 6.34252 39.9338 8.75398 42.0049 12.416C42.0745 12.5313 42.1193 12.6585 42.1848 12.7758C45.5333 13.0591 48.9104 14.9581 50.8909 18.0167C53.5142 21.8535 53.7367 27.3454 51.2977 31.4866C51.2339 31.6025 51.1462 31.7017 51.0787 31.8151C52.5108 34.8585 52.5577 38.7382 50.8988 41.984C48.8883 46.1772 44.2374 49.115 39.4314 49.0709C39.3001 49.0734 39.1713 49.0493 39.0403 49.0474C37.1194 51.8078 33.7858 53.7827 30.1464 53.9676C25.5087 54.3201 20.6393 51.7699 18.2723 47.5847C18.2027 47.4694 18.1579 47.3422 18.0924 47.2249C14.7439 46.9416 11.3669 45.0426 9.38628 41.984C6.76302 38.1472 6.5405 32.6553 8.97952 28.5141C9.04333 28.3983 9.13103 28.299 9.19855 28.1856C7.7664 25.1422 7.71952 21.2625 9.37846 18.0167C11.389 13.8235 16.0399 10.8857 20.8458 10.9298C20.9771 10.9273 21.1059 10.9514 21.2369 10.9533C23.1579 8.19293 26.4915 6.21804 30.1308 6.0331C30.7105 5.98904 31.3014 5.98889 31.883 6.0331ZM30.1386 11.0471C28.6164 10.8841 27.0235 11.148 25.5 11.7824C28.4802 12.9221 31.0312 15.1269 32.3992 17.962C33.9988 21.0169 34.0283 24.6688 32.806 27.6224C32.8573 27.6782 32.9069 27.7356 32.9546 27.7945C34.8868 26.6866 36.3611 25.1347 37.163 23.3202C38.3404 20.737 38.1719 17.743 36.8422 15.4041C35.5366 13.0051 33.0022 11.3836 30.1386 11.0471ZM43.5928 16.8747C44.0955 20.0251 43.4612 23.339 41.692 25.9406C39.8469 28.8494 36.7004 30.6991 33.5334 31.1189C33.5098 31.1928 33.4837 31.2658 33.4552 31.338C35.3813 32.4575 37.4587 32.9518 39.4314 32.7381C42.2589 32.4658 44.7733 30.8292 46.135 28.5063C47.5608 26.1754 47.691 23.179 46.5496 20.5277C45.9308 19.1268 44.9061 17.8762 43.5928 16.8747ZM20.8458 16.8981C18.1144 16.8301 15.4538 18.2168 13.7276 20.5277C12.8241 21.7642 12.257 23.2758 12.0458 24.9159C14.5223 22.9031 17.7121 21.7887 20.8536 22.0217C24.2959 22.1657 27.4643 23.9693 29.4111 26.5038C29.4862 26.4857 29.5619 26.4701 29.638 26.4569C29.6444 24.2292 29.0334 22.1836 27.8623 20.5824C26.2163 18.2715 23.5372 16.9182 20.8458 16.8981ZM20.8458 27.2548C18.0183 27.5271 15.5039 29.1637 14.1422 31.4866C12.7164 33.8175 12.5862 36.8218 13.7276 39.4731C14.3464 40.8739 15.3711 42.1239 16.6844 43.126C16.1817 39.9756 16.816 36.6617 18.5852 34.0601C20.4304 31.1513 23.5768 29.3016 26.7438 28.8818C26.7699 28.8052 26.7986 28.7296 26.8298 28.6549C24.9023 27.5331 22.8204 27.0409 20.8458 27.2548ZM27.3226 32.2062C25.391 33.3141 23.9237 34.8664 23.1221 36.6805C21.9446 39.2637 22.1053 42.2577 23.435 44.5966C24.7406 46.9956 27.2829 48.6172 30.1464 48.9536C31.6666 49.1166 33.2537 48.8527 34.7772 48.2183C31.797 47.0786 29.246 44.8738 27.878 42.0387C26.2785 38.9838 26.2489 35.3319 27.4712 32.3783C27.4199 32.3225 27.3703 32.2651 27.3226 32.2062ZM30.8661 33.4969C30.791 33.515 30.7153 33.5306 30.6392 33.5438C30.6329 35.7716 31.2438 37.8172 32.4149 39.4183C34.0609 41.7292 36.7401 43.0825 39.4314 43.1026C42.1628 43.1706 44.8235 41.7839 46.5496 39.4731C47.4532 38.2365 48.0203 36.7249 48.2314 35.0848C45.755 37.0976 42.5651 38.212 39.4236 37.979C35.9813 37.835 32.813 36.0314 30.8661 33.4969Z" fill="white"/>
</svg>
