<svg width="64" height="60" viewBox="0 0 64 60" fill="none" xmlns="http://www.w3.org/2000/svg">
<path d="M23.8911 19.3163L24.4191 21.2868C24.6892 22.295 24.0909 23.3314 23.0827 23.6015L14.2734 25.962C13.2652 26.2321 12.2288 25.6338 11.9586 24.6255L11.8647 24.2767L11.8365 24.2856L11.2569 24.4409L12.2974 28.3239L18.8464 26.5691C19.2741 26.4545 19.7132 26.6916 19.8567 27.1031L19.8751 27.1631L20.9728 31.26L23.1834 31.2602C23.5498 29.5407 24.0557 27.1664 24.701 24.1374C24.8944 23.23 25.7867 22.651 26.6942 22.8444C27.6017 23.0377 28.1806 23.9301 27.9873 24.8376C27.4385 27.4132 26.9978 29.4816 26.6652 31.0425L26.6188 31.2603L26.6498 31.26C27.3457 31.26 27.9098 31.8241 27.9098 32.52C27.9098 33.191 27.3853 33.7395 26.7238 33.7778L26.6498 33.78H16.5698C14.9461 33.78 13.6298 35.0963 13.6298 36.72C13.6298 38.3099 14.8918 39.605 16.4687 39.6583L16.5698 39.66H23.4449C24.1408 39.66 24.7049 40.2241 24.7049 40.92C24.7049 41.591 24.1803 42.1395 23.5189 42.1778L23.4449 42.18H16.5698C13.5543 42.18 11.1098 39.7355 11.1098 36.72C11.1098 33.7476 13.485 31.3299 16.4409 31.2615L16.5698 31.26L19.2332 31.2596L18.4698 28.4092L11.9208 30.164C11.4931 30.2787 11.054 30.0416 10.9105 29.63L10.892 29.5701L9.41677 24.0643C9.30216 23.6366 9.53925 23.1974 9.95078 23.054L10.0107 23.0355L11.4017 22.6628C11.4114 22.6602 11.4211 22.6578 11.4308 22.6555L11.4307 22.655C11.1605 21.6468 11.7588 20.6104 12.7671 20.3403L21.5763 17.9798C22.5846 17.7097 23.6209 18.308 23.8911 19.3163ZM31.2668 17.6727C30.6153 17.7876 29.8091 18.4763 29.9866 19.4825C30.211 20.7553 29.3513 21.9707 28.0663 22.1972C26.7814 22.4238 25.5578 21.5757 25.3334 20.303C25.0341 18.6061 26.1805 16.9855 27.8937 16.6834C29.057 16.4783 30.388 16.8614 31.2668 17.6727Z" fill="white"/>
<path d="M36.2318 15.555L24.7594 43.9106C24.4114 44.7707 24.8266 45.7501 25.6867 46.0981C26.5468 46.4461 27.5262 46.0309 27.8742 45.1708L39.3465 16.8152C39.6945 15.9551 39.2793 14.9757 38.4192 14.6277C37.5591 14.2797 36.5797 14.6949 36.2318 15.555Z" fill="white"/>
<path fill-rule="evenodd" clip-rule="evenodd" d="M41.4907 16.98H50.3798C53.3522 16.98 55.7698 19.3552 55.8383 22.3111L55.8398 22.44V36.72C55.8398 39.6924 53.4646 42.11 50.5087 42.1785L50.3798 42.18L45.1211 42.1798C45.349 42.4123 45.5517 42.6731 45.7232 42.9591L45.7598 43.02C46.1538 43.6766 45.9408 44.5284 45.2842 44.9224C45.0687 45.0517 44.8221 45.12 44.5708 45.12H36.8688C36.103 45.12 35.4822 44.4992 35.4822 43.7334C35.4822 43.4821 35.5505 43.2355 35.6798 43.02L35.7163 42.9591C35.8879 42.6731 36.0905 42.4123 36.3185 42.1798L32.5298 42.18C31.8339 42.18 31.2698 41.6159 31.2698 40.92C31.2698 40.249 31.7943 39.7004 32.4557 39.6621L32.5298 39.66H50.3798C51.9697 39.66 53.2648 38.398 53.3181 36.8211L53.3198 36.72V22.44C53.3198 20.8501 52.0578 19.555 50.4808 19.5017L50.3798 19.5H41.4907C40.7949 19.5 40.2307 18.9359 40.2307 18.24C40.2307 17.569 40.7553 17.0204 41.4167 16.9821L41.4907 16.98Z" fill="white"/>
</svg>
