<svg width="64" height="60" viewBox="0 0 64 60" fill="none" xmlns="http://www.w3.org/2000/svg">
<path d="M36.5419 15.555L25.0696 43.9106C24.7216 44.7707 25.1368 45.7501 25.9969 46.0981C26.857 46.4461 27.8363 46.0309 28.1843 45.1708L39.6567 16.8152C40.0047 15.9551 39.5895 14.9757 38.7294 14.6277C37.8693 14.2797 36.8899 14.6949 36.5419 15.555Z" fill="white"/>
<path d="M17.725 18.24H32.1606C32.8564 18.24 33.4206 18.8041 33.4206 19.5C33.4206 20.171 32.896 20.7195 32.2346 20.7579L32.1606 20.76H17.725C17.4015 20.76 17.1089 20.9455 16.9694 21.2331L16.9419 21.2962L9.61108 40.1962C9.44331 40.6287 9.65794 41.1154 10.0905 41.2831C10.1631 41.3113 10.2392 41.3292 10.3166 41.3364L10.3942 41.34H23.2729C23.9688 41.34 24.5329 41.9041 24.5329 42.6C24.5329 43.271 24.0084 43.8195 23.3469 43.8579L23.2729 43.86H10.3942C9.97863 43.86 9.56664 43.7829 9.17917 43.6326C7.48235 42.9744 6.6239 41.0894 7.2246 39.385L7.26162 39.2849L14.5924 20.3849C15.0796 19.1289 16.2678 18.289 17.6065 18.2421L17.725 18.24ZM18.3201 36.2171C19.1595 36.2171 19.8399 36.8975 19.8399 37.7368C19.8399 38.5762 19.1595 39.2566 18.3201 39.2566C17.4808 39.2566 16.8004 38.5762 16.8004 37.7368C16.8004 36.8975 17.4808 36.2171 18.3201 36.2171Z" fill="white"/>
<path d="M40.2094 20.34H55.7153C56.9076 20.34 57.8742 21.3066 57.8742 22.4989C57.8742 22.7383 57.8344 22.9757 57.7567 23.2015L57.7146 23.3135L53.503 33.6511C53.1841 34.4339 52.4393 34.9558 51.6008 34.9933L51.5036 34.9955H44.6852L37.1459 39.323C36.2067 39.862 35.0825 39.045 35.2793 38.0019L35.294 37.9335L36.0057 34.9955H35.5483C34.8524 34.9955 34.2883 34.4314 34.2883 33.7355C34.2883 33.0645 34.8128 32.516 35.4742 32.4777L35.5483 32.4755H37.6073C38.3985 32.4755 38.9874 33.1936 38.8472 33.9602L38.8319 34.0321L38.4331 35.6785L43.7221 32.6427C43.8857 32.5488 44.0679 32.493 44.2553 32.479L44.3493 32.4755H51.2608L55.1783 22.86H40.2094C39.5135 22.86 38.9494 22.2958 38.9494 21.6C38.9494 20.9289 39.4739 20.3804 40.1354 20.3421L40.2094 20.34ZM40.0234 26.2344C40.8233 26.2344 41.4717 26.8829 41.4717 27.6827C41.4717 28.4826 40.8233 29.131 40.0234 29.131C39.2236 29.131 38.5752 28.4826 38.5752 27.6827C38.5752 26.8829 39.2236 26.2344 40.0234 26.2344ZM44.6579 26.2344C45.4578 26.2344 46.1062 26.8829 46.1062 27.6827C46.1062 28.4826 45.4578 29.131 44.6579 29.131C43.8581 29.131 43.2097 28.4826 43.2097 27.6827C43.2097 26.8829 43.8581 26.2344 44.6579 26.2344ZM49.2924 26.2344C50.0923 26.2344 50.7407 26.8829 50.7407 27.6827C50.7407 28.4826 50.0923 29.131 49.2924 29.131C48.4926 29.131 47.8441 28.4826 47.8441 27.6827C47.8441 26.8829 48.4926 26.2344 49.2924 26.2344Z" fill="white"/>
</svg>
