<svg width="64" height="60" viewBox="0 0 64 60" fill="none" xmlns="http://www.w3.org/2000/svg">
<path d="M36.5419 15.555L25.0696 43.9106C24.7216 44.7707 25.1368 45.7501 25.9969 46.0981C26.857 46.4461 27.8363 46.0309 28.1843 45.1708L39.6567 16.8152C40.0047 15.9551 39.5895 14.9757 38.7294 14.6277C37.8693 14.2797 36.8899 14.6949 36.5419 15.555Z" fill="white"/>
<path fill-rule="evenodd" clip-rule="evenodd" d="M24.02 37.5C24.8484 37.5 25.52 38.1716 25.52 39C25.52 39.8284 24.8484 40.5 24.02 40.5C23.1916 40.5 22.52 39.8284 22.52 39C22.52 38.1716 23.1916 37.5 24.02 37.5ZM19.22 37.5C20.0484 37.5 20.72 38.1716 20.72 39C20.72 39.8284 20.0484 40.5 19.22 40.5H10.82C9.99158 40.5 9.32001 39.8284 9.32001 39C9.32001 38.1716 9.99158 37.5 10.82 37.5H19.22ZM26.42 31.5C27.2484 31.5 27.92 32.1716 27.92 33C27.92 33.8284 27.2484 34.5 26.42 34.5H21.62C20.7916 34.5 20.12 33.8284 20.12 33C20.12 32.1716 20.7916 31.5 21.62 31.5H26.42ZM16.82 31.5C17.6484 31.5 18.32 32.1716 18.32 33C18.32 33.8284 17.6484 34.5 16.82 34.5H10.82C9.99158 34.5 9.32001 33.8284 9.32001 33C9.32001 32.1716 9.99158 31.5 10.82 31.5H16.82ZM28.82 25.5C29.6484 25.5 30.32 26.1716 30.32 27C30.32 27.8284 29.6484 28.5 28.82 28.5H10.82C9.99158 28.5 9.32001 27.8284 9.32001 27C9.32001 26.1716 9.99158 25.5 10.82 25.5H28.82ZM10.82 19.5C11.6484 19.5 12.32 20.1716 12.32 21C12.32 21.8284 11.6484 22.5 10.82 22.5C9.99158 22.5 9.32001 21.8284 9.32001 21C9.32001 20.1716 9.99158 19.5 10.82 19.5ZM30.62 19.5C31.4484 19.5 32.12 20.1716 32.12 21C32.12 21.8284 31.4484 22.5 30.62 22.5H15.62C14.7916 22.5 14.12 21.8284 14.12 21C14.12 20.1716 14.7916 19.5 15.62 19.5H30.62Z" fill="white"/>
<path d="M40.5116 19.92C45.0955 20.1091 48.864 23.4435 49.729 27.8308C53.1347 28.0803 55.82 30.8905 55.82 34.3574C55.82 36.0988 55.13 37.7689 53.9017 39.0002C52.7226 40.1823 51.1401 40.8671 49.4786 40.92L33.7249 40.9053C33.0042 40.9053 32.42 40.3321 32.42 39.6026C32.42 38.8732 33.0042 38.294 33.7249 38.294L49.2706 38.297C51.3947 38.297 53.1252 36.6074 53.1978 34.4957L53.2002 34.3574C53.2002 32.2279 51.5149 30.493 49.4085 30.4201L47.3057 30.4178V29.7612C47.3057 25.9001 44.2836 22.7466 40.4815 22.5485C40.4815 22.5485 40.4833 22.5482 40.4869 22.5476C39.7662 22.5476 39.182 21.9623 39.182 21.2329C39.182 20.5387 39.7112 19.9753 40.3835 19.922L40.5116 19.92Z" fill="white"/>
</svg>
