<svg width="64" height="60" viewBox="0 0 64 60" fill="none" xmlns="http://www.w3.org/2000/svg">
<path d="M36.5419 15.555L25.0696 43.9106C24.7216 44.7707 25.1367 45.7501 25.9968 46.0981C26.857 46.4461 27.8363 46.0309 28.1843 45.1708L39.6566 16.8152C40.0046 15.9551 39.5895 14.9757 38.7294 14.6277C37.8692 14.2797 36.8899 14.6949 36.5419 15.555Z" fill="white"/>
<path d="M15.9112 29.9952L23.9125 34.7779C24.1544 34.919 24.3258 35.0954 24.4266 35.3071C24.5274 35.5187 24.5778 35.7355 24.5778 35.9572C24.5778 36.4411 24.4114 36.8695 24.0788 37.2424C23.7462 37.6154 23.4085 37.8019 23.0658 37.8019C22.844 37.8019 22.6071 37.7363 22.3551 37.6053C22.1031 37.4743 21.836 37.3281 21.5538 37.1668L11.7258 31.391C11.4838 31.2297 11.3024 31.0231 11.1814 30.7711C11.0605 30.5191 11 30.262 11 29.9999C11 29.7177 11.0605 29.4506 11.1814 29.1986C11.3024 28.9466 11.4838 28.75 11.7258 28.6089L21.5538 22.954C21.8158 22.7927 22.0628 22.6667 22.2946 22.576C22.5265 22.4853 22.7432 22.4399 22.9448 22.4399C23.348 22.4399 23.726 22.6365 24.0788 23.0296C24.4316 23.4227 24.608 23.831 24.608 24.2543C24.608 24.4559 24.5526 24.6525 24.4417 24.844C24.3308 25.0355 24.1645 25.2019 23.9427 25.343L15.9112 29.9952ZM48.0888 30.2466L40.0875 25.4639C39.8456 25.3228 39.6742 25.1464 39.5734 24.9347C39.4726 24.7231 39.4222 24.5063 39.4222 24.2846C39.4222 23.8007 39.5936 23.3723 39.9363 22.9994C40.279 22.6264 40.6117 22.4399 40.9342 22.4399C41.156 22.4399 41.3929 22.5055 41.6449 22.6365C41.8969 22.7675 42.164 22.9137 42.4462 23.075L52.2742 28.8508C52.5162 28.9919 52.6976 29.1885 52.8186 29.4405C52.9395 29.6925 53 29.9596 53 30.2419C53 30.5241 52.9395 30.7912 52.8186 31.0432C52.6976 31.2952 52.5162 31.4918 52.2742 31.6329L42.4462 37.2878C42.1842 37.4289 41.9422 37.5499 41.7205 37.6507C41.4987 37.7515 41.277 37.8019 41.0552 37.8019C40.652 37.8019 40.274 37.6053 39.9212 37.2122C39.5684 36.8191 39.392 36.4108 39.392 35.9875C39.392 35.7657 39.4474 35.5641 39.5583 35.3827C39.6692 35.2012 39.8355 35.0399 40.0573 34.8988L48.0888 30.2466Z" fill="white"/>
</svg>
