<svg width="60" height="60" viewBox="0 0 60 60" fill="none" xmlns="http://www.w3.org/2000/svg">
<path d="M47.3498 16.1931C43.1956 12.8527 36.624 12.2877 36.3447 12.2637C35.9062 12.2266 35.4895 12.4753 35.3105 12.8767C35.2975 12.9029 35.1535 13.2324 34.9942 13.7451C37.7411 14.2077 41.1164 15.1415 44.1709 17.0375C44.6596 17.3407 44.8102 17.9844 44.5069 18.4753C44.3105 18.7938 43.968 18.9684 43.6189 18.9684C43.4313 18.9684 43.2415 18.9182 43.0691 18.8113C37.8196 15.556 31.2611 15.3924 30 15.3924C28.7389 15.3924 22.1782 15.556 16.9331 18.8113C16.4422 19.1167 15.8007 18.964 15.4953 18.4753C15.1898 17.9844 15.3425 17.3429 15.8313 17.0375C18.8858 15.1437 22.2589 14.2077 25.008 13.7451C24.8465 13.2302 24.7025 12.9029 24.6916 12.8767C24.5105 12.4753 24.096 12.2222 23.6553 12.2658C23.3782 12.2877 16.8065 12.8527 12.5956 16.2411C10.3964 18.2724 6 30.1589 6 40.4353C6 40.6164 6.048 40.7953 6.13745 40.9524C9.17236 46.2826 17.4502 47.6789 19.3375 47.74C19.3484 47.74 19.3593 47.74 19.3702 47.74C19.704 47.74 20.0182 47.5807 20.2145 47.3102L22.1236 44.6877C16.9767 43.3567 14.3476 41.0986 14.1949 40.9655C13.7629 40.5837 13.7215 39.9247 14.1033 39.4927C14.4851 39.0607 15.1418 39.0193 15.5738 39.3989C15.6371 39.4557 20.4785 43.564 30 43.564C39.5389 43.564 44.3804 39.4382 44.4284 39.3967C44.8604 39.0215 45.5193 39.0607 45.8989 39.4949C46.2785 39.9269 46.2371 40.5837 45.8073 40.9633C45.6545 41.0986 43.0255 43.3546 37.8785 44.6855L39.7876 47.308C39.984 47.5786 40.2982 47.7378 40.632 47.7378C40.6429 47.7378 40.6538 47.7378 40.6647 47.7378C42.552 47.6789 50.8298 46.2826 53.8647 40.9502C53.952 40.7931 54 40.6164 54 40.4353C54 30.1589 49.6036 18.2724 47.3498 16.1931ZM23.2167 36.2615C21.2007 36.2615 19.5644 34.3917 19.5644 32.0877C19.5644 29.7837 21.1985 27.9138 23.2167 27.9138C25.2349 27.9138 26.8691 29.7837 26.8691 32.0877C26.8691 34.3917 25.2349 36.2615 23.2167 36.2615ZM36.7833 36.2615C34.7673 36.2615 33.1309 34.3917 33.1309 32.0877C33.1309 29.7837 34.7651 27.9138 36.7833 27.9138C38.7993 27.9138 40.4356 29.7837 40.4356 32.0877C40.4356 34.3917 38.7993 36.2615 36.7833 36.2615Z" fill="white"/>
</svg>
