<svg width="60" height="60" viewBox="0 0 60 60" fill="none" xmlns="http://www.w3.org/2000/svg">
<g clip-path="url(#clip0_25_902)">
<path d="M10.8 38.4C10.8 37.0745 9.72548 36 8.4 36C7.07452 36 6 37.0745 6 38.4L6 49.2C6 51.84 8.16 54 10.8 54H21.6C22.9255 54 24 52.9255 24 51.6C24 50.2745 22.9255 49.2 21.6 49.2H13.2C11.8745 49.2 10.8 48.1255 10.8 46.8V38.4Z" fill="white"/>
<path d="M38.4 49.2C37.0745 49.2 36 50.2745 36 51.6C36 52.9255 37.0745 54 38.4 54L49.2 54C51.84 54 54 51.84 54 49.2V38.4C54 37.0745 52.9255 36 51.6 36C50.2745 36 49.2 37.0745 49.2 38.4V46.8C49.2 48.1255 48.1255 49.2 46.8 49.2H38.4Z" fill="white"/>
<path d="M21.6 10.8C22.9255 10.8 24 9.72548 24 8.4C24 7.07452 22.9255 6 21.6 6L10.8 6C8.15999 6 5.99999 8.16 5.99999 10.8V21.6C5.99999 22.9255 7.07451 24 8.39999 24C9.72547 24 10.8 22.9255 10.8 21.6V13.2C10.8 11.8745 11.8745 10.8 13.2 10.8H21.6Z" fill="white"/>
<path d="M49.2 21.6C49.2 22.9255 50.2745 24 51.6 24C52.9255 24 54 22.9255 54 21.6L54 10.8C54 8.16 51.84 6 49.2 6L38.4 6C37.0745 6 36 7.07452 36 8.4C36 9.72548 37.0745 10.8 38.4 10.8L46.8 10.8C48.1255 10.8 49.2 11.8745 49.2 13.2V21.6Z" fill="white"/>
</g>
<defs>
<clipPath id="clip0_25_902">
<rect width="48" height="48" fill="white" transform="translate(6 6)"/>
</clipPath>
</defs>
</svg>
