<svg width="60" height="60" viewBox="0 0 60 60" fill="none" xmlns="http://www.w3.org/2000/svg">
<g clip-path="url(#clip0_18_773)">
<path d="M27.3059 6.85273C16.2435 8.05517 7.34548 16.9532 6.14305 27.7751C4.94061 39.078 11.4338 49.1785 21.2937 53.0263C22.0152 53.2668 22.7367 52.7858 22.7367 51.8238V47.976C22.7367 47.976 21.7747 48.2165 20.5723 48.2165C17.2055 48.2165 15.7625 45.3307 15.522 43.6473C15.2816 42.6853 14.8006 41.9639 14.0791 41.2424C13.3577 41.0019 13.1172 41.0019 13.1172 40.7614C13.1172 40.2805 13.8386 40.2805 14.0791 40.2805C15.522 40.2805 16.7245 41.9639 17.2055 42.6853C18.4079 44.6092 19.8508 45.0902 20.5723 45.0902C21.5342 45.0902 22.2557 44.8497 22.7367 44.6092C22.9771 42.9258 23.6986 41.2424 25.1415 40.2805C19.6103 39.078 15.522 35.9517 15.522 30.661C15.522 28.0156 16.7245 25.3702 18.4079 23.4464C18.1674 22.9654 17.9269 21.7629 17.9269 20.0795C17.9269 19.1176 17.9269 17.6747 18.6484 16.2317C18.6484 16.2317 22.0152 16.2317 25.382 19.3581C26.5845 18.8771 28.2679 18.6366 29.9513 18.6366C31.6347 18.6366 33.3181 18.8771 34.761 19.3581C37.8874 16.2317 41.4947 16.2317 41.4947 16.2317C41.9756 17.6747 41.9756 19.1176 41.9756 20.0795C41.9756 22.0034 41.7351 22.9654 41.4947 23.4464C43.1781 25.3702 44.3805 27.7751 44.3805 30.661C44.3805 35.9517 40.2922 39.078 34.761 40.2805C36.2039 41.4829 37.1659 43.6473 37.1659 45.8117V52.0643C37.1659 52.7858 37.8874 53.5072 38.8493 53.2668C47.7473 49.6595 54 41.0019 54 30.9015C54 16.4722 41.7351 5.16932 27.3059 6.85273Z" fill="white"/>
</g>
<defs>
<clipPath id="clip0_18_773">
<rect width="48" height="48" fill="white" transform="translate(6 6)"/>
</clipPath>
</defs>
</svg>
