<svg width="60" height="60" viewBox="0 0 60 60" fill="none" xmlns="http://www.w3.org/2000/svg">
<g clip-path="url(#clip0_18_797)">
<path d="M19.3333 6C11.9707 6 6 11.9707 6 19.3333V40.6667C6 48.0293 11.9707 54 19.3333 54H40.6667C48.0293 54 54 48.0293 54 40.6667V19.3333C54 11.9707 48.0293 6 40.6667 6H19.3333ZM46 11.3333C47.472 11.3333 48.6667 12.528 48.6667 14C48.6667 15.472 47.472 16.6667 46 16.6667C44.528 16.6667 43.3333 15.472 43.3333 14C43.3333 12.528 44.528 11.3333 46 11.3333ZM30 16.6667C37.3627 16.6667 43.3333 22.6373 43.3333 30C43.3333 37.3627 37.3627 43.3333 30 43.3333C22.6373 43.3333 16.6667 37.3627 16.6667 30C16.6667 22.6373 22.6373 16.6667 30 16.6667ZM30 22C27.8783 22 25.8434 22.8429 24.3431 24.3431C22.8429 25.8434 22 27.8783 22 30C22 32.1217 22.8429 34.1566 24.3431 35.6569C25.8434 37.1571 27.8783 38 30 38C32.1217 38 34.1566 37.1571 35.6569 35.6569C37.1571 34.1566 38 32.1217 38 30C38 27.8783 37.1571 25.8434 35.6569 24.3431C34.1566 22.8429 32.1217 22 30 22Z" fill="white"/>
</g>
<defs>
<clipPath id="clip0_18_797">
<rect width="48" height="48" fill="white" transform="translate(6 6)"/>
</clipPath>
</defs>
</svg>
