<svg width="60" height="60" viewBox="0 0 60 60" fill="none" xmlns="http://www.w3.org/2000/svg">
<g clip-path="url(#clip0_18_804)">
<path d="M53.766 23.8979C52.218 15.7259 44.046 14.7104 44.046 14.7104H7.44601C6.23401 14.7104 6.08551 16.3049 6.08551 16.3049C6.08551 16.3049 5.92201 30.9554 6.04501 39.9554C6.37501 44.7974 11.217 45.2969 11.217 45.2969C11.217 45.2969 27.7485 45.2505 35.1465 45.1965C40.023 44.3445 40.515 40.0619 40.458 37.7264C49.17 38.2109 55.3035 32.0624 53.766 23.8979ZM31.6395 30.9224C29.148 33.8204 23.6175 38.8679 23.6175 38.8679C23.6175 38.8679 23.376 39.1095 22.992 38.9145C22.8435 38.805 22.782 38.7344 22.782 38.7344C21.8895 37.8524 16.0455 32.6399 14.7105 30.8279C13.296 28.8974 12.633 25.4294 14.532 23.4059C16.4295 21.3899 20.5395 21.2339 23.2575 24.2174C23.2575 24.2174 26.382 20.6549 30.195 22.2959C33.999 23.9384 33.8595 28.3199 31.6395 30.9224ZM43.9845 31.8764C42.1245 32.1104 40.6185 31.9305 40.6185 31.9305V20.5709H44.157C44.157 20.5709 48.1035 21.6734 48.1035 25.8449C48.1035 29.6729 46.1325 31.1804 43.9845 31.8764Z" fill="white"/>
</g>
<defs>
<clipPath id="clip0_18_804">
<rect width="48" height="48" fill="white" transform="translate(6 6)"/>
</clipPath>
</defs>
</svg>
