<svg width="64" height="60" viewBox="0 0 64 60" fill="none" xmlns="http://www.w3.org/2000/svg">
<path d="M36.3086 15.555L24.8363 43.9106C24.4883 44.7707 24.9034 45.7501 25.7635 46.0981C26.6237 46.4461 27.603 46.0309 27.951 45.1708L39.4233 16.8152C39.7713 15.9551 39.3562 14.9757 38.496 14.6277C37.6359 14.2797 36.6566 14.6949 36.3086 15.555Z" fill="white"/>
<path d="M23.852 41.4975L23.0023 43.5975C22.9382 43.7561 22.7841 43.86 22.613 43.86H21.29C20.4781 43.86 19.82 43.2018 19.82 42.39V41.34C19.82 41.108 20.008 40.92 20.24 40.92H23.4627C23.6947 40.92 23.8827 41.108 23.8827 41.34C23.8827 41.394 23.8723 41.4474 23.852 41.4975ZM24.23 14.46C27.6954 14.46 30.7606 16.173 32.6252 18.7984C32.8735 19.164 32.8079 19.3692 32.7166 19.5881C32.2216 20.8116 31.844 21.745 31.5837 22.3883C31.5013 22.5637 31.2941 22.5637 31.1884 22.3765C30.2013 19.4819 27.4588 17.4 24.23 17.4C20.1707 17.4 16.88 20.6907 16.88 24.75C16.88 27.5971 18.494 30.0637 20.8665 31.2819C21.2416 31.4536 21.29 31.682 21.29 32.0797C21.29 32.9264 21.29 33.7732 21.29 34.62C21.29 34.8519 21.478 35.04 21.71 35.04H25.8414C26.0733 35.04 26.2614 35.228 26.2614 35.46C26.2614 35.514 26.251 35.5674 26.2307 35.6175L25.381 37.7175C25.3168 37.8761 25.1628 37.98 24.9917 37.98H19.82C19.0081 37.98 18.35 37.3218 18.35 36.51V33.1878C15.6893 31.3209 13.94 28.2486 13.94 24.75C13.94 19.067 18.547 14.46 24.23 14.46Z" fill="white"/>
<path d="M42.92 18.66C44.4277 18.66 45.65 19.8823 45.65 21.39V22.755C45.65 23.4625 45.1117 24.0443 44.4223 24.1132C44.3772 24.1177 44.285 24.1536 44.285 24.2475C44.285 24.6701 44.285 25.2642 44.285 26.0297C44.285 26.3973 44.3814 26.7584 44.5647 27.0769L51.7925 39.6401C52.2293 40.2816 52.475 41.046 52.475 41.865C52.475 44.1266 50.6416 45.96 48.38 45.96H30.635C30.4271 45.96 30.2229 45.9446 30.0234 45.9147C29.7744 45.867 29.6915 45.6709 29.7744 45.4629C29.8767 45.1911 29.9689 44.9537 30.051 44.7509L30.5597 43.4923C30.6239 43.3336 30.7779 43.2298 30.9491 43.2298L48.38 43.23C49.1339 43.23 49.745 42.6189 49.745 41.865C49.745 41.5784 49.6494 41.3054 49.4993 41.087L41.8364 27.8151C41.652 27.4959 41.555 27.1337 41.555 26.7651V22.0984V21.81C41.5549 21.5781 41.3669 21.3901 41.135 21.39L40.1256 21.3898C39.8936 21.3898 39.7056 21.2017 39.7056 20.9698C39.7057 20.9158 39.7161 20.8623 39.7363 20.8123L40.501 18.9223C40.5652 18.7636 40.7193 18.6598 40.8904 18.6598L42.92 18.66ZM34.94 34.41C39.8338 37.58 39.5058 32.1746 43.7926 34.2643C43.9303 34.3328 44.0917 34.5047 44.1916 34.6569C44.972 36.0085 46.1426 38.036 47.7035 40.7393C47.8301 40.9236 47.9108 41.154 47.9108 41.3958C47.9108 42.0083 47.4326 42.5092 46.8292 42.5454L46.759 42.5475H31.7867C31.6291 42.5475 31.4789 42.5159 31.3421 42.4586C31.1724 42.3723 31.0648 42.214 31.2186 41.8645C31.8936 40.196 32.901 37.7061 34.2407 34.3948C34.4045 33.99 34.94 34.41 34.94 34.41Z" fill="white"/>
</svg>
