<svg width="60" height="60" viewBox="0 0 60 60" fill="none" xmlns="http://www.w3.org/2000/svg">
<g clip-path="url(#clip0_18_796)">
<path d="M48.6667 6H11.3333C8.38667 6 6 8.38667 6 11.3333V48.6667C6 51.6133 8.38667 54 11.3333 54H48.6667C51.6133 54 54 51.6133 54 48.6667V11.3333C54 8.38667 51.6133 6 48.6667 6ZM22 43.3333H15.272V24.6667H22V43.3333ZM18.5173 21.2453C16.4613 21.2453 15.088 19.8747 15.088 18.0453C15.088 16.216 16.4587 14.8453 18.744 14.8453C20.8 14.8453 22.1733 16.216 22.1733 18.0453C22.1733 19.8747 20.8027 21.2453 18.5173 21.2453ZM46 43.3333H39.488V33.1307C39.488 30.3093 37.752 29.6587 37.1013 29.6587C36.4507 29.6587 34.28 30.0933 34.28 33.1307C34.28 33.5653 34.28 43.3333 34.28 43.3333H27.552V24.6667H34.28V27.272C35.1467 25.752 36.8827 24.6667 40.1387 24.6667C43.3947 24.6667 46 27.272 46 33.1307V43.3333Z" fill="white"/>
</g>
<defs>
<clipPath id="clip0_18_796">
<rect width="48" height="48" fill="white" transform="translate(6 6)"/>
</clipPath>
</defs>
</svg>
