<svg width="60" height="60" viewBox="0 0 60 60" fill="none" xmlns="http://www.w3.org/2000/svg">
<path d="M54 15.6C54 12.96 51.84 10.8 49.2 10.8H10.8C8.16 10.8 6 12.96 6 15.6V44.4001C6 47.0401 8.16 49.2001 10.8 49.2001H49.2C51.84 49.2001 54 47.0401 54 44.4001V15.6ZM45.7073 15.6C46.7124 15.6 47.0894 16.9166 46.2365 17.4485L32.1169 26.2556C30.8213 27.0637 29.1787 27.0637 27.8831 26.2556L13.7635 17.4485C12.9106 16.9166 13.2876 15.6 14.2927 15.6H45.7073ZM49.2 42.4001C49.2 43.5046 48.3046 44.4001 47.2 44.4001H12.8C11.6954 44.4001 10.8 43.5046 10.8 42.4001V22.2043C10.8 21.4189 11.664 20.94 12.33 21.3563L27.88 31.0751C29.1771 31.8857 30.8229 31.8857 32.12 31.0751L47.67 21.3563C48.336 20.94 49.2 21.4189 49.2 22.2043V42.4001Z" fill="white"/>
</svg>
