<svg width="64" height="60" viewBox="0 0 64 60" fill="none" xmlns="http://www.w3.org/2000/svg">
<path d="M36.6062 15.3664L25.1339 43.722C24.7859 44.5821 25.201 45.5615 26.0611 45.9095C26.9213 46.2575 27.9006 45.8423 28.2486 44.9822L39.7209 16.6266C40.0689 15.7665 39.6538 14.7871 38.7937 14.4391C37.9335 14.0911 36.9542 14.5063 36.6062 15.3664Z" fill="white"/>
<path d="M21.7267 15.3C23.1124 15.3 24.2398 16.4275 24.2398 17.8132V18.3928C24.829 18.5811 25.4013 18.8187 25.9512 19.1032L26.362 18.6924C27.3569 17.6963 28.9506 17.7255 29.9166 18.6928L31.1276 19.9037C32.0953 20.8704 32.1231 22.4635 31.1273 23.4583L30.7168 23.8688L31.0246 24.5933C31.2411 25.1031 31.1925 25.6867 30.8947 26.1536L30.423 26.8931C30.2622 27.1453 29.9274 27.2193 29.6752 27.0584C29.5597 26.9847 29.4764 26.87 29.4421 26.7373C29.2355 25.9365 28.9168 25.1689 28.4951 24.4557C28.3216 24.1623 28.3688 23.7887 28.6098 23.5476L29.3908 22.7666C29.7285 22.4294 29.7197 21.8888 29.3911 21.5607L28.2599 20.4294C27.932 20.101 27.3911 20.0914 27.0539 20.4291L26.2726 21.2104C26.0316 21.4515 25.6578 21.4987 25.3645 21.3251C24.6513 20.9033 23.8836 20.5847 23.083 20.378C22.7532 20.293 22.5228 19.9956 22.5228 19.655V18.5524C22.5228 18.0821 22.1401 17.6995 21.6699 17.6995H20.0702C19.5999 17.6995 19.2173 18.0821 19.2173 18.5524V19.6549C19.2173 19.9955 18.9869 20.2929 18.6571 20.3779C17.8565 20.5846 17.0888 20.9032 16.3756 21.325C16.0821 21.4985 15.7085 21.4513 15.4674 21.2103L14.6865 20.4293C14.3498 20.0922 13.809 20.1 13.4806 20.4289L12.3492 21.5603C12.0215 21.8875 12.0106 22.4283 12.3489 22.7662L13.1302 23.5475C13.3713 23.7886 13.4184 24.1622 13.245 24.4556C12.8232 25.1688 12.5046 25.9364 12.2979 26.7372C12.2128 27.0669 11.9154 27.2973 11.5749 27.2973H10.4723C10.0021 27.2973 9.61938 27.6799 9.61938 28.1502V29.7499C9.61938 30.2202 10.0021 30.6028 10.4723 30.6028H11.5748C11.9154 30.6028 12.2127 30.8332 12.2979 31.1629C12.5045 31.9636 12.8232 32.7312 13.2449 33.4444C13.4184 33.7378 13.3712 34.1115 13.1302 34.3525L12.3491 35.1335C12.0115 35.4708 12.0203 36.0114 12.3488 36.3395L13.4801 37.4708C13.808 37.7991 14.3489 37.8087 14.6861 37.4711L15.4673 36.6898C15.645 36.5122 16.0145 36.3615 16.3756 36.5751C17.0888 36.9969 17.8564 37.3155 18.6571 37.5221C18.9868 37.6072 19.2172 37.9046 19.2172 38.2452V39.3477C19.2172 39.818 19.5999 40.2006 20.0702 40.2006H21.6698C22.1401 40.2006 22.5228 39.818 22.5228 39.3477V38.2452C22.5228 37.9046 22.7531 37.6072 23.0829 37.5221C23.8836 37.3155 24.6512 36.9969 25.3644 36.5751C25.6579 36.4015 26.0315 36.4487 26.2726 36.6898C26.5052 36.9225 26.5755 37.272 26.4508 37.5764L26.2824 37.988C26.0704 38.5058 25.6607 38.9176 25.1439 39.1321L24.2398 39.5074V40.087C24.2398 41.4726 23.1124 42.6 21.7266 42.6H20.0133C18.6275 42.6 17.5001 41.4726 17.5001 40.0869V39.5073C16.9109 39.319 16.3385 39.0814 15.7887 38.7969L15.3779 39.2077C14.383 40.2038 12.7893 40.1746 11.8233 39.2073L10.6123 37.9964C9.64461 37.0297 9.61677 35.4366 10.6126 34.4418L11.0231 34.0313C10.7385 33.4814 10.501 32.9091 10.3127 32.3199H9.73312C8.34743 32.3199 7.21997 31.1925 7.21997 29.8067V28.0934C7.21997 26.7076 8.34743 25.5802 9.73317 25.5802H10.3128C10.501 24.991 10.7386 24.4187 11.0231 23.8688L10.6124 23.4581C9.61709 22.4638 9.64455 20.8705 10.6127 19.9035L11.8238 18.6924C12.792 17.7229 14.3853 17.6987 15.3783 18.6928L15.7887 19.1032C16.3386 18.8187 16.911 18.5811 17.5001 18.3928V17.8132C17.5001 16.4275 18.6275 15.3 20.0133 15.3H21.7267ZM20.87 23.0102C24.1453 23.0102 26.8099 25.6748 26.8099 28.95C26.8099 32.2253 24.1453 34.8899 20.87 34.8899C17.5947 34.8899 14.9301 32.2253 14.9301 28.95C14.9301 25.6748 17.5947 23.0102 20.87 23.0102ZM20.8744 25.2565C18.8353 25.2565 17.1764 26.9154 17.1764 28.9544C17.1764 30.9935 18.8353 32.6524 20.8744 32.6524C22.9134 32.6524 24.5723 30.9935 24.5723 28.9544C24.5723 26.9154 22.9134 25.2565 20.8744 25.2565Z" fill="white"/>
<path d="M34.1 34.6201H40.0591C40.5019 34.6201 40.8647 34.9628 40.8968 35.3974L40.8991 35.4601L40.8994 38.9175C42.1582 39.2501 43.0862 40.3967 43.0862 41.7601C43.0862 43.3838 41.7699 44.7001 40.1462 44.7001C38.5225 44.7001 37.2062 43.3838 37.2062 41.7601C37.2062 40.4604 38.0496 39.3576 39.2189 38.9693L39.2191 36.3001H34.1C33.6361 36.3001 33.26 35.924 33.26 35.4601C33.26 35.0173 33.6027 34.6545 34.0373 34.6224L34.1 34.6201ZM40.1462 40.5001C39.4503 40.5001 38.8862 41.0642 38.8862 41.7601C38.8862 42.456 39.4503 43.0201 40.1462 43.0201C40.8421 43.0201 41.4062 42.456 41.4062 41.7601C41.4062 41.0642 40.8421 40.5001 40.1462 40.5001ZM35.9177 30.8401H41.5729C41.7131 30.8401 41.8507 30.8752 41.9733 30.9417L42.0333 30.9775L47.1174 34.3089C47.5941 33.9756 48.1742 33.7801 48.8 33.7801C50.4237 33.7801 51.74 35.0964 51.74 36.7201C51.74 38.3438 50.4237 39.6601 48.8 39.6601C47.1763 39.6601 45.86 38.3438 45.86 36.7201C45.86 36.3352 45.934 35.9675 46.0685 35.6306L41.3222 32.5201H35.9177C35.4538 32.5201 35.0777 32.144 35.0777 31.6801C35.0777 31.2373 35.4204 30.8745 35.855 30.8424L35.9177 30.8401ZM48.8 35.4601C48.1041 35.4601 47.54 36.0242 47.54 36.7201C47.54 37.416 48.1041 37.9801 48.8 37.9801C49.4959 37.9801 50.06 37.416 50.06 36.7201C50.06 36.0242 49.4959 35.4601 48.8 35.4601ZM54.26 25.3801C55.8837 25.3801 57.2 26.6964 57.2 28.3201C57.2 29.9438 55.8837 31.2601 54.26 31.2601C52.9283 31.2601 51.8035 30.3747 51.4419 29.1605L37.9285 29.1601C37.4646 29.1601 37.0885 28.784 37.0885 28.3201C37.0885 27.8773 37.4312 27.5145 37.8658 27.4824L37.9285 27.4801L51.4418 27.4801C51.8032 26.2657 52.9282 25.3801 54.26 25.3801ZM54.26 27.0601C53.5641 27.0601 53 27.6242 53 28.3201C53 29.016 53.5641 29.5801 54.26 29.5801C54.9559 29.5801 55.52 29.016 55.52 28.3201C55.52 27.6242 54.9559 27.0601 54.26 27.0601ZM48.8 15.7201C50.4237 15.7201 51.74 17.0364 51.74 18.6601C51.74 20.131 50.6598 21.3496 49.2494 21.566L47.3642 25.3359C47.2219 25.6205 46.9311 25.8003 46.6129 25.8003H39.2467C38.7828 25.8003 38.4067 25.4242 38.4067 24.9603C38.4067 24.4964 38.7828 24.1203 39.2467 24.1203H46.0938L47.504 21.2998C46.5302 20.8207 45.86 19.8187 45.86 18.6601C45.86 17.0364 47.1763 15.7201 48.8 15.7201ZM48.8 17.4001C48.1041 17.4001 47.54 17.9642 47.54 18.6601C47.54 19.356 48.1041 19.9201 48.8 19.9201C49.4959 19.9201 50.06 19.356 50.06 18.6601C50.06 17.9642 49.4959 17.4001 48.8 17.4001Z" fill="white"/>
</svg>
