<svg width="60" height="60" viewBox="0 0 60 60" fill="none" xmlns="http://www.w3.org/2000/svg">
<path d="M30 6C20.712 6 13.2 13.512 13.2 22.8C13.2 33.1288 24.4893 47.4895 28.5592 52.3311C29.3216 53.238 30.6784 53.238 31.4408 52.3311C35.5107 47.4895 46.8 33.1288 46.8 22.8C46.8 13.512 39.288 6 30 6ZM18 22.8C18 16.176 23.376 10.8 30 10.8C36.624 10.8 42 16.176 42 22.8C42 29.0284 36.3877 38.0434 31.5548 44.4893C30.776 45.5281 29.2297 45.524 28.4555 44.4817C23.6801 38.0532 18 28.958 18 22.8Z" fill="white"/>
<path d="M30 28.8C33.3137 28.8 36 26.1138 36 22.8C36 19.4863 33.3137 16.8 30 16.8C26.6863 16.8 24 19.4863 24 22.8C24 26.1138 26.6863 28.8 30 28.8Z" fill="white"/>
</svg>
