<svg width="60" height="60" viewBox="0 0 60 60" fill="none" xmlns="http://www.w3.org/2000/svg">
<path d="M25.8 32.4C25.8 34.056 24.456 35.4 22.8 35.4C21.144 35.4 19.8 34.056 19.8 32.4C19.8 30.744 21.144 29.4 22.8 29.4C24.456 29.4 25.8 30.744 25.8 32.4ZM37.2 29.4C35.544 29.4 34.2 30.744 34.2 32.4C34.2 34.056 35.544 35.4 37.2 35.4C38.856 35.4 40.2 34.056 40.2 32.4C40.2 30.744 38.856 29.4 37.2 29.4ZM54 30C54 43.248 43.248 54 30 54C16.752 54 6 43.248 6 30C6 16.752 16.752 6 30 6C43.248 6 54 16.752 54 30ZM26.784 11.088C30.144 16.656 36.24 20.4 43.2 20.4C44.304 20.4 45.384 20.28 46.416 20.112C43.056 14.544 36.96 10.8 30 10.8C28.896 10.8 27.816 10.92 26.784 11.088ZM11.808 23.928C15.912 21.6 19.08 17.808 20.592 13.272C16.488 15.6 13.32 19.392 11.808 23.928ZM49.2 30C49.2 28.128 48.912 26.328 48.408 24.624C46.728 24.984 45 25.2 43.2 25.2C35.688 25.2 28.992 21.744 24.576 16.344C22.056 22.488 17.04 27.312 10.8 29.664C10.824 29.76 10.8 29.88 10.8 30C10.8 40.584 19.416 49.2 30 49.2C40.584 49.2 49.2 40.584 49.2 30Z" fill="white"/>
</svg>
