<svg width="60" height="60" viewBox="0 0 60 60" fill="none" xmlns="http://www.w3.org/2000/svg">
<g clip-path="url(#clip0_19_929)">
<path d="M49.2 6H10.8C8.16 6 6 8.16 6 10.8V51.5858C6 52.4767 7.07714 52.9229 7.70711 52.2929L15.6 44.4H49.2C51.84 44.4 54 42.24 54 39.6V10.8C54 8.16 51.84 6 49.2 6ZM49.2 37.6C49.2 38.7046 48.3046 39.6 47.2 39.6H16.4284C15.898 39.6 15.3893 39.8107 15.0142 40.1858L12.5071 42.6929C11.8771 43.3229 10.8 42.8767 10.8 41.9858V12.8C10.8 11.6954 11.6954 10.8 12.8 10.8H47.2C48.3046 10.8 49.2 11.6954 49.2 12.8V37.6ZM18 25.2C18 23.8745 19.0745 22.8 20.4 22.8V22.8C21.7255 22.8 22.8 23.8745 22.8 25.2V25.2C22.8 26.5255 21.7255 27.6 20.4 27.6V27.6C19.0745 27.6 18 26.5255 18 25.2V25.2ZM27.6 25.2C27.6 23.8745 28.6745 22.8 30 22.8V22.8C31.3255 22.8 32.4 23.8745 32.4 25.2V25.2C32.4 26.5255 31.3255 27.6 30 27.6V27.6C28.6745 27.6 27.6 26.5255 27.6 25.2V25.2ZM37.2 25.2C37.2 23.8745 38.2745 22.8 39.6 22.8V22.8C40.9255 22.8 42 23.8745 42 25.2V25.2C42 26.5255 40.9255 27.6 39.6 27.6V27.6C38.2745 27.6 37.2 26.5255 37.2 25.2V25.2Z" fill="white"/>
</g>
<defs>
<clipPath id="clip0_19_929">
<rect width="48" height="48" fill="white" transform="translate(6 6)"/>
</clipPath>
</defs>
</svg>
