<svg width="60" height="60" viewBox="0 0 60 60" fill="none" xmlns="http://www.w3.org/2000/svg">
<path d="M33.3262 13.2C34.4487 13.2 35.5196 13.6717 36.2773 14.4998L38.2907 16.7002C39.0484 17.5284 40.1193 18 41.2418 18H49.2V46.8H10.8V18H18.7582C19.8807 18 20.9516 17.5284 21.7093 16.7002L23.7227 14.4998C24.4804 13.6717 25.5513 13.2 26.6738 13.2H33.3262ZM38.3893 9.6998C37.6316 8.87166 36.5607 8.40002 35.4382 8.40002H24.5618C23.4393 8.40002 22.3684 8.87167 21.6107 9.6998L19.5973 11.9002C18.8396 12.7284 17.7687 13.2 16.6462 13.2H10.8C8.16 13.2 6 15.36 6 18V46.8C6 49.44 8.16 51.6 10.8 51.6H49.2C51.84 51.6 54 49.44 54 46.8V18C54 15.36 51.84 13.2 49.2 13.2H43.3538C42.2313 13.2 41.1605 12.7284 40.4027 11.9003L38.3893 9.6998ZM30 25.2C33.96 25.2 37.2 28.44 37.2 32.4C37.2 36.36 33.96 39.6 30 39.6C26.04 39.6 22.8 36.36 22.8 32.4C22.8 28.44 26.04 25.2 30 25.2ZM30 20.4C23.376 20.4 18 25.776 18 32.4C18 39.024 23.376 44.4 30 44.4C36.624 44.4 42 39.024 42 32.4C42 25.776 36.624 20.4 30 20.4Z" fill="white"/>
</svg>
