<svg width="60" height="60" viewBox="0 0 60 60" fill="none" xmlns="http://www.w3.org/2000/svg">
<g clip-path="url(#clip0_18_721)">
<path d="M30 6C16.8 6 6 16.8 6 30C6 43.2 16.8 54 30 54C43.2 54 54 43.2 54 30C54 16.8 43.2 6 30 6ZM39.7368 40.5744C39.2856 40.5744 39.06 40.3488 38.6088 40.1232C35.2224 38.0904 30.9336 36.9624 26.4192 36.9624C23.9352 36.9624 21.228 37.4136 18.9696 37.8648C18.5184 37.8648 18.0672 38.0904 17.8416 38.0904C16.9392 38.0904 16.2624 37.4136 16.2624 36.5112C16.2624 35.6088 16.7136 34.932 17.616 34.932C20.5512 34.2552 23.4864 33.804 26.6472 33.804C31.8384 33.804 36.5808 35.1576 40.644 37.416C41.0952 37.8672 41.5464 38.0928 41.5464 38.9952C41.0904 40.1232 40.4136 40.5744 39.7368 40.5744ZM42.2184 34.2552C41.7672 34.2552 41.316 34.0296 40.8648 33.804C37.0272 31.32 31.608 29.9664 25.74 29.9664C22.8048 29.9664 20.0952 30.4176 18.0648 30.8688C17.6136 31.0944 17.388 31.0944 16.9368 31.0944C15.8088 31.0944 15.1296 30.192 15.1296 29.2872C15.1296 28.1592 15.5808 27.708 16.7088 27.2544C19.4184 26.5776 22.128 25.9008 25.9656 25.9008C32.2872 25.9008 38.1552 27.48 43.1232 30.4152C43.8 30.8664 44.2512 31.5432 44.2512 32.2224C44.0256 33.3504 43.3488 34.2552 42.2184 34.2552ZM45.1536 27.0288C44.7024 27.0288 44.4768 26.8032 43.8 26.5776C39.2856 24.0936 32.7384 22.5144 26.4168 22.5144C23.256 22.5144 19.8696 22.9656 16.9344 23.6424C16.4832 23.6424 16.2576 23.868 15.5808 23.868C14.2272 24.096 13.3224 22.9656 13.3224 21.612C13.3224 20.2584 13.9992 19.5792 14.9016 19.3536C18.516 18.4512 22.3536 18 26.4168 18C33.4152 18 40.6392 19.5792 46.284 22.5144C46.9608 22.9656 47.6376 23.6424 47.6376 24.7728C47.412 26.1264 46.5072 27.0288 45.1536 27.0288Z" fill="white"/>
</g>
<defs>
<clipPath id="clip0_18_721">
<rect width="48" height="48" fill="white" transform="translate(6 6)"/>
</clipPath>
</defs>
</svg>
