<svg width="60" height="60" viewBox="0 0 60 60" fill="none" xmlns="http://www.w3.org/2000/svg">
<g clip-path="url(#clip0_19_930)">
<path d="M6 22.4C6 21.2954 6.89543 20.4 8 20.4H14.2857C15.3903 20.4 16.2857 21.2954 16.2857 22.4V52C16.2857 53.1046 15.3903 54 14.2857 54H8C6.89543 54 6 53.1046 6 52V22.4ZM25.2 8C25.2 6.89543 26.0954 6 27.2 6H32.8C33.9046 6 34.8 6.89543 34.8 8V52C34.8 53.1046 33.9046 54 32.8 54H27.2C26.0954 54 25.2 53.1046 25.2 52V8ZM44.4 35.4286C44.4 34.324 45.2954 33.4286 46.4 33.4286H52C53.1046 33.4286 54 34.324 54 35.4286V52C54 53.1046 53.1046 54 52 54H46.4C45.2954 54 44.4 53.1046 44.4 52V35.4286Z" fill="white"/>
</g>
<defs>
<clipPath id="clip0_19_930">
<rect width="48" height="48" fill="white" transform="translate(6 6)"/>
</clipPath>
</defs>
</svg>
