<svg width="64" height="60" viewBox="0 0 64 60" fill="none" xmlns="http://www.w3.org/2000/svg">
<path d="M36.1219 15.555L24.6496 43.9106C24.3016 44.7707 24.7168 45.7501 25.5769 46.0981C26.437 46.4461 27.4164 46.0309 27.7644 45.1708L39.2367 16.8152C39.5847 15.9551 39.1695 14.9757 38.3094 14.6277C37.4493 14.2797 36.4699 14.6949 36.1219 15.555Z" fill="white"/>
<path d="M51.1759 32.5406C50.9257 37.372 47.269 41.2894 42.5685 41.9688V45.54C42.5685 46.0039 42.1924 46.38 41.7285 46.38H40.5348C40.0709 46.38 39.6948 46.0039 39.6948 45.54V41.9688C36.9083 41.5661 34.4886 40.0254 32.9279 37.8309C32.7856 37.6308 32.4993 37.2477 32.7571 36.6356C32.9944 36.0491 33.3277 35.2254 33.757 34.1643C33.8931 33.8279 34.2292 34.0234 34.2993 34.2386C35.2367 37.1162 37.9413 39.1957 41.1317 39.1957C44.9218 39.1957 48.0265 36.2607 48.2968 32.5395C48.3094 32.3652 48.3094 32.0115 48.7384 32.0115C49.642 32.0115 50.3355 32.0115 50.8189 32.0115C51.1759 32.0115 51.185 32.3654 51.1759 32.5406ZM41.1317 19.08C43.5123 19.08 45.4422 21.0098 45.4422 23.3905V32.0115C45.4422 34.3922 43.5123 36.3221 41.1317 36.3221C38.751 36.3221 36.8211 34.3922 36.8211 32.0115L36.8209 26.9999C36.8209 26.73 36.8729 26.4626 36.9742 26.2124C37.8414 24.0684 38.7086 21.9245 39.5758 19.7806C39.751 19.3929 40.0542 19.213 40.2004 19.1808C40.5003 19.1148 40.8119 19.08 41.1317 19.08Z" fill="white"/>
<path d="M34.8924 14.6207C35.0056 14.3427 34.812 14.04 34.5118 14.04C33.9115 14.04 33.4522 14.1205 32.8686 14.2587C32.4876 14.3441 32.1251 14.4478 31.758 14.5528C31.7308 14.5606 31.7036 14.5684 31.6763 14.5762C31.0837 14.7455 30.4841 14.9078 29.7927 15.0347C29.1014 15.1617 28.3253 15.2464 27.3871 15.2464C26.5546 15.2464 25.8491 15.1758 25.2142 15.0771C24.3882 14.9415 23.6915 14.7466 23.0017 14.5537C22.902 14.5258 22.8025 14.498 22.7028 14.4704C22.3077 14.3645 21.9126 14.2587 21.4893 14.1811C21.0731 14.1035 20.6287 14.0471 20.156 14.0471H20.1207C19.3306 14.0471 18.5475 14.1529 17.7856 14.3645H17.7715C17.2706 14.5127 16.7909 14.7173 16.3324 14.9783C15.5422 15.4369 14.8368 16.0506 14.216 16.7843C13.7504 17.3346 13.3271 17.9624 12.9391 18.6467C12.3535 19.6767 11.8526 20.8478 11.4011 22.1529C10.9496 23.458 10.5616 24.9043 10.2089 26.4774C9.92671 27.7402 9.70802 28.9607 9.55987 30.1177C9.39761 31.2817 9.32001 32.3752 9.32001 33.391C9.32001 34.2023 9.36939 34.9642 9.48227 35.6697C9.56692 36.2059 9.6798 36.7067 9.835 37.1794C9.95493 37.5321 10.096 37.8708 10.2583 38.1882C10.5122 38.6679 10.8297 39.0983 11.2248 39.4581C11.6198 39.8179 12.0854 40.1071 12.6075 40.2835C13.066 40.4457 13.5387 40.5233 13.9973 40.5233C14.5475 40.5233 15.0837 40.4105 15.5775 40.22C15.9514 40.0789 16.2971 39.8955 16.6287 39.6768C17.1295 39.3523 17.5881 38.9642 18.0325 38.5339C18.4699 38.1036 18.8932 37.6238 19.3024 37.1159C19.7186 36.6009 20.1348 36.1988 20.5863 35.8743C20.925 35.6274 21.2918 35.4298 21.7151 35.2535C22.343 34.9925 23.0908 34.802 24.022 34.682C24.6948 34.5848 25.2654 34.4824 25.9261 34.4684C26.4445 34.4575 26.9329 34.1734 27.1284 33.6931L27.5553 32.6445C27.6626 32.3808 27.4703 32.0948 27.1856 32.0948C25.951 32.0948 25.0449 32.1353 24.0643 32.2482C23.3236 32.3328 22.6393 32.4528 22.0043 32.6221C21.5246 32.7491 21.0731 32.9043 20.6498 33.0877C20.0079 33.3699 19.4153 33.7156 18.8862 34.1388C18.35 34.5621 17.8703 35.0559 17.4258 35.6062C17.1013 36.0083 16.7839 36.3752 16.4664 36.6997C15.9937 37.1794 15.5352 37.5533 15.119 37.7861C14.9073 37.906 14.7168 37.9836 14.5334 38.0401C14.35 38.0965 14.1736 38.1177 14.0043 38.1177C13.8138 38.1177 13.6163 38.0895 13.3976 38.0119C13.2777 37.9695 13.1648 37.9131 13.066 37.8496C12.8897 37.7297 12.7204 37.5674 12.5581 37.3346C12.4382 37.1582 12.3253 36.9466 12.2195 36.6856C12.0643 36.3046 11.9373 35.8249 11.8597 35.2676C11.775 34.7103 11.7327 34.0753 11.7327 33.3769C11.7327 32.488 11.8033 31.4933 11.9444 30.421C12.0854 29.3487 12.29 28.1988 12.5581 26.9995C12.9038 25.4686 13.2777 24.0859 13.701 22.8725C14.0184 21.9624 14.3571 21.1441 14.7168 20.4245C15.2601 19.3452 15.8456 18.4986 16.4664 17.8848C16.7768 17.5744 17.0943 17.3275 17.4258 17.1229C17.7574 16.9183 18.096 16.7702 18.4558 16.6644C18.999 16.5092 19.5634 16.4316 20.1278 16.4316H20.1631C20.5511 16.4316 20.932 16.488 21.3694 16.5868C21.6939 16.6644 22.0537 16.7631 22.4558 16.876C23.0555 17.0453 23.7468 17.2358 24.5581 17.384C25.3694 17.5321 26.3077 17.6379 27.3941 17.6379C28.3606 17.6379 29.2072 17.5533 29.955 17.4333C30.9113 17.277 31.7035 17.0539 32.3754 16.8648C32.4915 16.8321 32.6041 16.8004 32.7134 16.7702C33.0873 16.6644 33.3167 16.6019 33.6271 16.5455C33.9252 16.4913 34.2286 16.2514 34.3428 15.9708L34.8924 14.6207Z" fill="white"/>
<path d="M25.448 23.6767H23.0423V21.271C23.0423 20.6079 22.5062 20.0647 21.836 20.0647C21.1729 20.0647 20.6296 20.6009 20.6296 21.271V23.6767H18.224C17.5609 23.6767 17.0176 24.2129 17.0176 24.883C17.0176 25.5462 17.5538 26.0894 18.224 26.0894H20.6296V28.495C20.6296 29.1582 21.1658 29.7014 21.836 29.7014C22.4991 29.7014 23.0423 29.1652 23.0423 28.495V26.0894H25.448C26.1111 26.0894 26.6543 25.5532 26.6543 24.883C26.6543 24.2129 26.1111 23.6767 25.448 23.6767Z" fill="white"/>
</svg>
