<svg width="60" height="60" viewBox="0 0 60 60" fill="none" xmlns="http://www.w3.org/2000/svg">
<g clip-path="url(#clip0_20_747)">
<path d="M10.8 17.6C10.8 16.4954 9.90457 15.6 8.8 15.6H8C6.89543 15.6 6 16.4954 6 17.6V49.2C6 51.84 8.16 54 10.8 54H42.4C43.5046 54 44.4 53.1046 44.4 52V51.2C44.4 50.0954 43.5046 49.2 42.4 49.2H12.8C11.6954 49.2 10.8 48.3046 10.8 47.2V17.6ZM49.2 6H20.4C17.76 6 15.6 8.16 15.6 10.8V39.6C15.6 42.24 17.76 44.4 20.4 44.4H49.2C51.84 44.4 54 42.24 54 39.6V10.8C54 8.16 51.84 6 49.2 6ZM49.2 37.6C49.2 38.7046 48.3046 39.6 47.2 39.6H22.4C21.2954 39.6 20.4 38.7046 20.4 37.6V12.8C20.4 11.6954 21.2954 10.8 22.4 10.8H47.2C48.3046 10.8 49.2 11.6954 49.2 12.8V37.6ZM25.2 24.8C25.2 23.6954 26.0954 22.8 27.2 22.8H42.4C43.5046 22.8 44.4 23.6954 44.4 24.8V25.6C44.4 26.7046 43.5046 27.6 42.4 27.6H27.2C26.0954 27.6 25.2 26.7046 25.2 25.6V24.8ZM25.2 32C25.2 30.8954 26.0954 30 27.2 30H32.8C33.9046 30 34.8 30.8954 34.8 32V32.8C34.8 33.9046 33.9046 34.8 32.8 34.8H27.2C26.0954 34.8 25.2 33.9046 25.2 32.8V32ZM25.2 17.6C25.2 16.4954 26.0954 15.6 27.2 15.6H42.4C43.5046 15.6 44.4 16.4954 44.4 17.6V18.4C44.4 19.5046 43.5046 20.4 42.4 20.4H27.2C26.0954 20.4 25.2 19.5046 25.2 18.4V17.6Z" fill="white"/>
</g>
<defs>
<clipPath id="clip0_20_747">
<rect width="48" height="48" fill="white" transform="translate(6 6)"/>
</clipPath>
</defs>
</svg>
