<svg width="60" height="60" viewBox="0 0 60 60" fill="none" xmlns="http://www.w3.org/2000/svg">
<path d="M54 10.7988C52.128 11.91 48.372 13.4244 46.164 13.8612C46.0992 13.878 46.0464 13.8996 45.984 13.9164C44.0328 11.9916 41.3592 10.7988 38.4 10.7988C32.436 10.7988 27.6 15.6348 27.6 21.5988C27.6 21.9132 27.5736 22.4916 27.6 22.7988C19.5528 22.7988 13.428 18.5844 9.036 13.1988C8.5584 14.3988 8.3496 16.2948 8.3496 18.0756C8.3496 21.438 10.9776 24.7404 15.0696 26.7876C14.316 26.982 13.4856 27.1212 12.6216 27.1212C11.2272 27.1212 9.7512 26.754 8.4 25.6404C8.4 25.6812 8.4 25.7196 8.4 25.7628C8.4 30.462 13.3872 33.6612 17.8224 34.5516C16.9224 35.082 15.108 35.1348 14.2224 35.1348C13.5984 35.1348 11.3904 34.8492 10.8 34.7388C12.0336 38.5908 16.4832 40.7556 20.724 40.8324C17.4072 43.434 15.1056 44.3988 8.3136 44.3988H6C10.2912 47.1492 15.756 49.2012 21.2328 49.2012C39.0648 49.2012 49.2 35.61 49.2 22.7988C49.2 22.5924 49.1952 22.1604 49.188 21.726C49.188 21.6828 49.2 21.642 49.2 21.5988C49.2 21.534 49.1808 21.4716 49.1808 21.4068C49.1736 21.0804 49.1664 20.7756 49.1592 20.6172C51.0552 19.2492 52.6992 17.5428 54 15.5988C52.26 16.3716 50.3928 16.89 48.432 17.1252C50.4336 15.9252 53.2776 13.0644 54 10.7988Z" fill="white"/>
</svg>
