<svg width="64" height="60" viewBox="0 0 64 60" fill="none" xmlns="http://www.w3.org/2000/svg">
<path d="M36.3086 15.555L24.8362 43.9106C24.4882 44.7707 24.9034 45.7501 25.7635 46.0981C26.6236 46.4461 27.603 46.0309 27.951 45.1708L39.4233 16.8152C39.7713 15.9551 39.3561 14.9757 38.496 14.6277C37.6359 14.2797 36.6566 14.6949 36.3086 15.555Z" fill="white"/>
<path d="M21.8884 15.4717C26.7193 15.4717 30.8886 16.8815 32.8411 18.9236C33.0705 19.1492 33.1119 19.3087 32.9988 19.572C31.9442 22.1783 31.1479 24.1462 30.6101 25.4754C30.5176 25.6907 30.4722 25.7888 30.1971 25.95C28.0228 26.9721 25.1049 27.605 21.8884 27.605C18.5061 27.605 15.454 26.9052 13.2494 25.7888C13.0929 25.7096 12.9019 25.7722 12.8226 25.9287C12.8001 25.9732 12.7884 26.0223 12.7884 26.0722C12.7884 27.5974 12.7884 28.6864 12.7884 29.3392C12.7884 29.7697 12.8905 29.897 13.1143 30.0288C15.1273 31.3389 18.4127 32.155 21.8884 32.155C24.0176 32.155 26.0753 31.8488 27.8129 31.3103C28.1544 31.1959 28.2058 31.4187 28.1151 31.6411C27.6402 32.8153 27.2764 33.7146 27.0237 34.3392C26.9126 34.5707 26.8964 34.665 26.5532 34.7527C25.0905 35.0368 23.5181 35.1883 21.8884 35.1883C18.6812 35.1883 15.6958 34.6013 13.3314 33.5723C13.1349 33.4867 12.9062 33.5767 12.8207 33.7733C12.7994 33.8221 12.7884 33.8749 12.7884 33.9282C12.7884 35.0659 12.7884 35.8617 12.7884 36.3157C12.7884 36.8054 12.8454 36.9973 13.1204 37.2617C14.0824 38.2314 17.1114 39.7383 21.8884 39.7383C22.8935 39.7383 23.8214 39.674 24.6685 39.5573C24.8894 39.5268 24.8894 39.62 24.8336 39.7529C24.5698 40.3813 24.1901 41.3185 23.6945 42.5646C23.662 42.6383 23.5992 42.7084 23.4252 42.7233C22.9218 42.7552 22.4089 42.7717 21.8884 42.7717C15.2668 42.7717 9.86409 40.1109 9.7567 36.8054L9.75507 36.705V21.5383C9.75507 18.1865 15.1847 15.4717 21.8884 15.4717ZM21.8884 18.505C16.0189 18.505 12.7884 20.78 12.7884 21.5383C12.7884 22.2967 16.0189 24.5717 21.8884 24.5717C27.7579 24.5717 30.9884 22.2967 30.9884 21.5383C30.9884 20.78 27.7579 18.505 21.8884 18.505Z" fill="white"/>
<path d="M54.6063 17.4C55.0219 17.4 55.4339 17.4771 55.8214 17.6274C57.5182 18.2856 58.3766 20.1706 57.7759 21.875L57.7389 21.9751L50.4081 40.8751C49.9209 42.1311 48.7328 42.971 47.394 43.0179L47.2755 43.02H32C31.3041 43.02 30.74 42.4559 30.74 41.76C30.74 41.089 31.2645 40.5405 31.926 40.5022L32 40.5H43.4955C43.8191 40.5 44.1117 40.3145 44.2512 40.0269L44.2787 39.9638L51.6095 21.0638C51.7772 20.6313 51.5626 20.1446 51.1301 19.9769C51.0574 19.9487 50.9813 19.9308 50.904 19.9236L50.8263 19.92H40.8876C40.1918 19.92 39.6276 19.3559 39.6276 18.66C39.6276 17.989 40.1522 17.4405 40.8136 17.4022L40.8876 17.4H54.6063ZM54.6063 19.92L53.6599 19.92C53.822 20.5457 53.8056 21.2235 53.576 21.875L53.5389 21.9751L46.3531 40.5H47.2755C47.5991 40.5 47.8917 40.3145 48.0312 40.0269L48.0587 39.9638L55.3895 21.0638C55.5572 20.6313 55.3426 20.1446 54.9101 19.9769C54.8374 19.9487 54.7613 19.9308 54.684 19.9236L54.6063 19.92ZM40.61 35.46C41.1899 35.46 41.66 35.9301 41.66 36.51C41.66 37.0899 41.1899 37.56 40.61 37.56H34.31C33.7301 37.56 33.26 37.0899 33.26 36.51C33.26 35.9301 33.7301 35.46 34.31 35.46H40.61ZM38.93 31.26C39.5099 31.26 39.98 31.7301 39.98 32.31C39.98 32.8899 39.5099 33.36 38.93 33.36H35.99C35.4101 33.36 34.94 32.8899 34.94 32.31C34.94 31.7301 35.4101 31.26 35.99 31.26H38.93ZM44.39 31.26C44.9699 31.26 45.44 31.7301 45.44 32.31C45.44 32.8899 44.9699 33.36 44.39 33.36H42.71C42.1301 33.36 41.66 32.8899 41.66 32.31C41.66 31.7301 42.1301 31.26 42.71 31.26H44.39ZM42.29 27.06C42.8699 27.06 43.34 27.5301 43.34 28.11C43.34 28.6899 42.8699 29.16 42.29 29.16H37.67C37.0901 29.16 36.62 28.6899 36.62 28.11C36.62 27.5301 37.0901 27.06 37.67 27.06H42.29ZM45.65 27.06C46.2299 27.06 46.7 27.5301 46.7 28.11C46.7 28.6899 46.2299 29.16 45.65 29.16C45.0701 29.16 44.6 28.6899 44.6 28.11C44.6 27.5301 45.0701 27.06 45.65 27.06ZM46.91 22.86C47.4899 22.86 47.96 23.3301 47.96 23.91C47.96 24.4899 47.4899 24.96 46.91 24.96H39.35C38.7701 24.96 38.3 24.4899 38.3 23.91C38.3 23.3301 38.7701 22.86 39.35 22.86H46.91Z" fill="white"/>
</svg>
