<svg width="60" height="60" viewBox="0 0 60 60" fill="none" xmlns="http://www.w3.org/2000/svg">
<path d="M32.8 16.8C33.9046 16.8 34.8 15.9045 34.8 14.8V13.9999C34.8 12.8954 33.9046 12 32.8 12H27.2C26.0954 12 25.2 12.8954 25.2 14V14.8C25.2 15.9045 26.0954 16.8 27.2 16.8H32.8ZM12.8 21.6C11.6954 21.6 10.8 22.4954 10.8 23.6V46C10.8 47.1045 11.6954 48 12.8 48H47.2C48.3046 48 49.2 47.1045 49.2 46V23.5999C49.2 22.4954 48.3046 21.6 47.2 21.6H12.8ZM49.2 16.8C51.864 16.8 54 18.936 54 21.6V48C54 50.664 51.864 52.7999 49.2 52.7999H10.8C8.136 52.7999 6 50.664 6 48L6.024 21.6C6.024 18.936 8.136 16.8 10.8 16.8H20.4V12C20.4 9.33595 22.536 7.19995 25.2 7.19995H34.8C37.464 7.19995 39.6 9.33595 39.6 12V16.8H49.2Z" fill="white"/>
</svg>
