<svg width="60" height="60" viewBox="0 0 60 60" fill="none" xmlns="http://www.w3.org/2000/svg">
<path d="M52.9968 16.0464C52.4448 13.9824 50.8176 12.3552 48.7536 11.8032C45.0096 10.8 30 10.8 30 10.8C30 10.8 14.9904 10.8 11.2464 11.8032C9.1824 12.3552 7.5552 13.9824 7.0032 16.0464C6 19.7904 6 30 6 30C6 30 6 40.2096 7.0032 43.9536C7.5552 46.0176 9.1824 47.6449 11.2464 48.1969C14.9904 49.2001 30 49.2001 30 49.2001C30 49.2001 45.0096 49.2001 48.7536 48.1969C50.82 47.6449 52.4448 46.0176 52.9968 43.9536C54 40.2096 54 30 54 30C54 30 54 19.7904 52.9968 16.0464ZM25.2 38.3137V21.6865L39.6 30L25.2 38.3137Z" fill="white"/>
</svg>
