<svg width="60" height="60" viewBox="0 0 60 60" fill="none" xmlns="http://www.w3.org/2000/svg">
<path fill-rule="evenodd" clip-rule="evenodd" d="M14.2233 24.827C14.2233 16.1112 21.2929 9.04568 30.0137 9.04568C38.7345 9.04568 45.8041 16.1112 45.8041 24.827C45.8041 24.8951 45.8038 24.963 45.8029 25.0308V25.0613C45.8024 25.1018 45.8014 25.1423 45.8005 25.1828C45.8001 25.1985 45.7997 25.2143 45.7994 25.23V25.2347V25.2452C45.4878 38.9329 30.0137 50.9543 30.0137 50.9543C30.0137 50.9543 14.5396 38.9329 14.228 25.2452V25.23C14.2276 25.2143 14.2272 25.1986 14.2269 25.1828C14.2259 25.1423 14.2249 25.1018 14.2244 25.0613C14.2233 24.9833 14.2233 24.9053 14.2233 24.827ZM18.0491 24.827C18.0491 18.1815 23.4059 12.7942 30.0138 12.7942C36.6217 12.7942 41.9785 18.1815 41.9785 24.827C41.9785 31.4726 36.6217 36.8598 30.0138 36.8598C23.4059 36.8598 18.0491 31.4726 18.0491 24.827Z" fill="white"/>
<path fill-rule="evenodd" clip-rule="evenodd" d="M40.0656 24.827C40.0656 19.258 35.5652 14.7435 30.0138 14.7435C24.4623 14.7435 19.9619 19.258 19.9619 24.827C19.9619 30.396 24.4623 34.9106 30.0138 34.9106C35.5652 34.9106 40.0656 30.396 40.0656 24.827ZM27.2641 17.9297V17.9274H35.3023V20.8161H30.6162H27.7681C27.3088 20.8161 26.937 21.3447 26.937 21.9969C26.937 22.649 27.3088 23.1777 27.7681 23.1777H30.6444H35.3023V26.1765H30.6022H27.7681V26.1777C27.7562 26.177 27.7449 26.1765 27.7329 26.1765C27.2736 26.1765 26.9007 26.6968 26.9007 27.3385C26.9007 27.9803 27.2736 28.5006 27.7329 28.5006C27.7449 28.5006 27.7562 28.5001 27.7681 28.4994V28.5006H30.6022H35.3023V31.4994H27.2641V31.4971C27.256 31.4972 27.2479 31.4971 27.2398 31.4971C27.2358 31.4971 27.2317 31.4971 27.2277 31.4971C25.2874 31.4971 23.715 29.6354 23.715 27.3385C23.715 26.3174 24.0255 25.3822 24.5413 24.6583C24.0473 23.9481 23.7501 23.0413 23.7501 22.0531C23.7501 19.7759 25.3237 17.9297 27.2641 17.9297Z" fill="white"/>
</svg>
