<svg width="390" height="105" viewBox="0 0 390 105" fill="none" xmlns="http://www.w3.org/2000/svg">
<path d="M5.77778 1.55556C6.22222 1.55556 6.62037 1.72222 6.97222 2.05556C7.32408 2.38889 7.5 2.79629 7.5 3.27778V38.7222C7.46296 39.2037 7.26852 39.6111 6.91667 39.9444C6.56481 40.2778 6.16667 40.4444 5.72222 40.4444C5.2037 40.4444 4.78704 40.2778 4.47222 39.9444C4.15741 39.6111 4 39.2037 4 38.7222V3.27778C4 2.79629 4.16666 2.38889 4.5 2.05556C4.83334 1.72222 5.25926 1.55556 5.77778 1.55556ZM31.8333 1.55556C32.3519 1.55556 32.7685 1.72222 33.0833 2.05556C33.3981 2.38889 33.5556 2.79629 33.5556 3.27778V38.7222C33.5185 39.2037 33.3426 39.6111 33.0278 39.9444C32.713 40.2778 32.2963 40.4444 31.7778 40.4444C31.2963 40.4444 30.8889 40.2778 30.5556 39.9444C30.2222 39.6111 30.0556 39.2037 30.0556 38.7222V3.27778C30.0556 2.79629 30.2315 2.38889 30.5833 2.05556C30.9352 1.72222 31.3519 1.55556 31.8333 1.55556ZM5.5 18.9444H31.8889L31.8333 22.1667H5.27778L5.5 18.9444ZM71.4861 1.55556C72.0046 1.55556 72.412 1.71296 72.7083 2.02778C73.0046 2.34259 73.1528 2.74074 73.1528 3.22222V26.2222C73.1528 28.963 72.5046 31.4444 71.2083 33.6667C69.912 35.8889 68.1713 37.6574 65.9861 38.9722C63.8009 40.287 61.338 40.9444 58.5972 40.9444C55.8565 40.9444 53.3843 40.287 51.1806 38.9722C48.9768 37.6574 47.2269 35.8889 45.9306 33.6667C44.6343 31.4444 43.9861 28.963 43.9861 26.2222V3.22222C43.9861 2.74074 44.1435 2.34259 44.4583 2.02778C44.7731 1.71296 45.2083 1.55556 45.7639 1.55556C46.2083 1.55556 46.5972 1.71296 46.9306 2.02778C47.2639 2.34259 47.4306 2.74074 47.4306 3.22222V26.2222C47.4306 28.3704 47.9398 30.2963 48.9583 32C49.9769 33.7037 51.338 35.0648 53.0417 36.0833C54.7454 37.1019 56.5972 37.6111 58.5972 37.6111C60.6713 37.6111 62.5602 37.1019 64.2639 36.0833C65.9676 35.0648 67.3287 33.7037 68.3472 32C69.3657 30.2963 69.875 28.3704 69.875 26.2222V3.22222C69.875 2.74074 70.0231 2.34259 70.3194 2.02778C70.6157 1.71296 71.0046 1.55556 71.4861 1.55556ZM110.125 35.1798V24.1667H101.347C100.866 24.1667 100.458 24 100.125 23.6667C99.7917 23.3333 99.625 22.9444 99.625 22.5C99.625 21.9815 99.7917 21.5741 100.125 21.2778C100.458 20.9815 100.866 20.8333 101.347 20.8333H111.958C112.44 20.8333 112.838 20.9907 113.153 21.3056C113.468 21.6204 113.625 22.0185 113.625 22.5V35.8889C113.625 36.1852 113.551 36.463 113.403 36.7222C113.255 36.9815 113.051 37.2037 112.792 37.3889C111.162 38.5 109.338 39.3796 107.319 40.0278C105.301 40.6759 103.199 41 101.014 41C98.162 41 95.5139 40.5 93.0694 39.5C90.625 38.5 88.5046 37.1019 86.7083 35.3056C84.912 33.5093 83.5139 31.3889 82.5139 28.9444C81.5139 26.5 81.0139 23.8519 81.0139 21C81.0139 18.1481 81.5139 15.5 82.5139 13.0556C83.5139 10.6111 84.912 8.49075 86.7083 6.69444C88.5046 4.89814 90.625 3.5 93.0694 2.5C95.5139 1.5 98.162 1 101.014 1C102.977 1 104.875 1.23148 106.708 1.69444C108.542 2.15741 110.181 2.85185 111.625 3.77778C111.884 3.96296 112.079 4.17592 112.208 4.41667C112.338 4.65741 112.403 4.90741 112.403 5.16667C112.403 5.68519 112.236 6.10185 111.903 6.41667C111.569 6.73148 111.218 6.88889 110.847 6.88889C110.662 6.88889 110.486 6.86111 110.319 6.80556C110.153 6.75 109.995 6.68519 109.847 6.61111C108.588 5.9074 107.218 5.35185 105.736 4.94444C104.255 4.53703 102.681 4.33333 101.014 4.33333C97.8287 4.33333 94.9954 5.05555 92.5139 6.5C90.0324 7.94444 88.088 9.92591 86.6806 12.4444C85.2731 14.963 84.5694 17.8148 84.5694 21C84.5694 24.1852 85.2731 27.037 86.6806 29.5556C88.088 32.0741 90.0324 34.0555 92.5139 35.5C94.9954 36.9445 97.8287 37.6667 101.014 37.6667C102.681 37.6667 104.356 37.4259 106.042 36.9444C107.341 36.5732 108.503 36.1028 109.527 35.5334L110.125 35.1798ZM138.208 1C140.912 1 143.403 1.49074 145.681 2.47222C147.958 3.45371 149.931 4.84258 151.597 6.63889C153.264 8.43519 154.551 10.5463 155.458 12.9722C156.366 15.3982 156.819 18.0741 156.819 21C156.819 23.9259 156.366 26.6018 155.458 29.0278C154.551 31.4537 153.264 33.5648 151.597 35.3611C149.931 37.1574 147.958 38.5463 145.681 39.5278C143.403 40.5093 140.912 41 138.208 41C135.505 41 133.014 40.5093 130.736 39.5278C128.458 38.5463 126.486 37.1574 124.819 35.3611C123.153 33.5648 121.866 31.4537 120.958 29.0278C120.051 26.6018 119.597 23.9259 119.597 21C119.597 18.0741 120.051 15.3982 120.958 12.9722C121.866 10.5463 123.153 8.43519 124.819 6.63889C126.486 4.84258 128.458 3.45371 130.736 2.47222C133.014 1.49074 135.505 1 138.208 1ZM138.208 4.33333C135.282 4.33333 132.681 5.03703 130.403 6.44444C128.125 7.85186 126.347 9.80554 125.069 12.3056C123.792 14.8056 123.153 17.7037 123.153 21C123.153 24.2963 123.792 27.1944 125.069 29.6944C126.347 32.1945 128.125 34.1481 130.403 35.5556C132.681 36.963 135.282 37.6667 138.208 37.6667C141.171 37.6667 143.782 36.963 146.042 35.5556C148.301 34.1481 150.069 32.1945 151.347 29.6944C152.625 27.1944 153.264 24.2963 153.264 21C153.264 17.7037 152.625 14.8056 151.347 12.3056C150.069 9.80554 148.301 7.85186 146.042 6.44444C143.782 5.03703 141.171 4.33333 138.208 4.33333Z" fill="black"/>
<path d="M180.944 103.998C178.129 104.035 175.685 103.59 173.611 102.665C171.537 101.739 169.555 100.35 167.667 98.4982C167.481 98.35 167.324 98.1648 167.194 97.9426C167.065 97.7204 167 97.4612 167 97.1649C167 96.7205 167.176 96.3131 167.528 95.9427C167.88 95.5724 168.278 95.3872 168.722 95.3872C169.167 95.3872 169.574 95.5724 169.944 95.9427C171.389 97.4982 173.027 98.6833 174.861 99.4981C176.694 100.313 178.666 100.72 180.777 100.72C182.555 100.72 184.138 100.443 185.527 99.887C186.916 99.3314 188.017 98.5352 188.832 97.4982C189.647 96.4612 190.054 95.2576 190.054 93.8873C190.054 92.1837 189.591 90.8041 188.666 89.7486C187.74 88.6931 186.517 87.8228 184.999 87.1376C183.784 86.5895 182.463 86.0829 181.035 85.6177L179.944 85.2766C178.425 84.8322 176.981 84.323 175.611 83.7489C174.24 83.1749 173.018 82.4712 171.944 81.6379C170.87 80.8047 170.037 79.7769 169.444 78.5548C168.852 77.3326 168.555 75.8512 168.555 74.1106C168.555 72.1477 169.074 70.4071 170.111 68.8886C171.148 67.3702 172.62 66.1758 174.527 65.3055C176.435 64.4352 178.648 64 181.166 64C183.351 64 185.453 64.3703 187.471 65.1111C189.265 65.7695 190.73 66.7058 191.866 67.9202L192.276 68.3887C192.832 68.9812 193.11 69.5182 193.11 69.9997C193.11 70.37 192.925 70.7404 192.554 71.1107C192.184 71.4811 191.776 71.6663 191.332 71.6663C190.962 71.6663 190.647 71.5366 190.388 71.2774C189.758 70.4996 188.962 69.8052 187.999 69.1942C187.036 68.5831 185.971 68.1109 184.805 67.7776C183.638 67.4443 182.425 67.2776 181.166 67.2776C179.425 67.2776 177.861 67.5461 176.472 68.0831C175.083 68.6201 173.99 69.3886 173.194 70.3885C172.398 71.3885 172 72.5921 172 73.9995C172 75.5549 172.444 76.8326 173.333 77.8326C174.222 78.8325 175.388 79.6566 176.833 80.3047C178.277 80.9528 179.814 81.5546 181.444 82.1101C183.036 82.5546 184.564 83.0638 186.027 83.6378C187.49 84.2119 188.786 84.9248 189.915 85.7766C191.045 86.6284 191.934 87.7024 192.582 88.9987C193.23 90.2949 193.554 91.9244 193.554 93.8873C193.554 95.7761 193.017 97.4797 191.943 98.9981C190.869 100.517 189.397 101.72 187.527 102.609C185.656 103.498 183.462 103.961 180.944 103.998ZM229.816 67.4443C230.261 67.7405 230.52 68.1202 230.594 68.5831C230.668 69.046 230.557 69.4997 230.261 69.9441C230.001 70.2774 229.668 70.4626 229.261 70.4996C228.853 70.5367 228.464 70.4626 228.094 70.2774C226.687 69.3516 225.177 68.6294 223.566 68.1109C221.955 67.5924 220.224 67.3332 218.372 67.3332C216.113 67.3332 214.011 67.7313 212.067 68.5275C210.123 69.3238 208.428 70.4719 206.984 71.9718C205.54 73.4717 204.419 75.2401 203.623 77.2771C202.827 79.314 202.429 81.5546 202.429 83.9989C202.429 86.5173 202.836 88.8042 203.651 90.8597C204.466 92.9151 205.604 94.6835 207.067 96.1649C208.53 97.6464 210.225 98.7759 212.15 99.5537C214.076 100.331 216.15 100.72 218.372 100.72C220.187 100.72 221.9 100.461 223.511 99.9425C225.122 99.424 226.631 98.7204 228.038 97.8315C228.409 97.6093 228.807 97.526 229.233 97.5815C229.659 97.6371 230.001 97.85 230.261 98.2204C230.594 98.6278 230.714 99.0629 230.622 99.5259C230.529 99.9888 230.279 100.35 229.872 100.609C228.946 101.202 227.853 101.757 226.594 102.276C225.335 102.794 224.002 103.211 222.594 103.526C221.187 103.84 219.78 103.998 218.372 103.998C215.706 103.998 213.206 103.516 210.873 102.553C208.539 101.591 206.465 100.23 204.651 98.4704C202.836 96.7112 201.419 94.6095 200.401 92.1652C199.383 89.7208 198.873 86.9988 198.873 83.9989C198.873 81.1102 199.373 78.4529 200.373 76.0271C201.373 73.6013 202.762 71.4996 204.54 69.7219C206.317 67.9442 208.391 66.5554 210.762 65.5555C213.132 64.5555 215.669 64.0556 218.372 64.0556C220.483 64.0556 222.52 64.3518 224.483 64.9444C226.446 65.537 228.224 66.3702 229.816 67.4443ZM239.496 64.5555C239.941 64.5555 240.339 64.7222 240.691 65.0555C241.042 65.3888 241.218 65.7962 241.218 66.2777V101.72C241.181 102.202 240.987 102.609 240.635 102.942C240.283 103.276 239.885 103.442 239.441 103.442C238.922 103.442 238.505 103.276 238.191 102.942C237.876 102.609 237.718 102.202 237.718 101.72V66.2777C237.718 65.7962 237.885 65.3888 238.218 65.0555C238.552 64.7222 238.978 64.5555 239.496 64.5555ZM265.55 64.5555C266.069 64.5555 266.485 64.7222 266.8 65.0555C267.115 65.3888 267.272 65.7962 267.272 66.2777V101.72C267.235 102.202 267.059 102.609 266.745 102.942C266.43 103.276 266.013 103.442 265.495 103.442C265.013 103.442 264.606 103.276 264.273 102.942C263.939 102.609 263.773 102.202 263.773 101.72V66.2777C263.773 65.7962 263.949 65.3888 264.3 65.0555C264.652 64.7222 265.069 64.5555 265.55 64.5555ZM239.218 81.9435H265.606L265.55 85.1655H238.996L239.218 81.9435ZM312.367 83.9989C312.367 86.9247 311.914 89.6005 311.006 92.0263C310.099 94.4521 308.812 96.5631 307.145 98.3593C305.479 100.155 303.507 101.544 301.229 102.526C298.951 103.507 296.461 103.998 293.757 103.998C291.054 103.998 288.563 103.507 286.285 102.526C284.008 101.544 282.036 100.155 280.369 98.3593C278.702 96.5631 277.415 94.4521 276.508 92.0263C275.601 89.6005 275.147 86.9247 275.147 83.9989C275.147 81.0731 275.601 78.3974 276.508 75.9716C277.415 73.5458 278.702 71.4348 280.369 69.6386C282.036 67.8424 284.008 66.4536 286.285 65.4721C288.563 64.4907 291.054 64 293.757 64C296.461 64 298.951 64.4907 301.229 65.4721C303.507 66.4536 305.479 67.8424 307.145 69.6386C308.812 71.4348 310.099 73.5458 311.006 75.9716C311.914 78.3974 312.367 81.0731 312.367 83.9989ZM308.812 83.9989C308.812 80.7028 308.173 77.8048 306.895 75.305C305.618 72.8051 303.849 70.8515 301.59 69.4442C299.331 68.0368 296.72 67.3332 293.757 67.3332C290.831 67.3332 288.23 68.0368 285.952 69.4442C283.674 70.8515 281.897 72.8051 280.619 75.305C279.341 77.8048 278.702 80.7028 278.702 83.9989C278.702 87.2951 279.341 90.193 280.619 92.6929C281.897 95.1928 283.674 97.1464 285.952 98.5537C288.23 99.9611 290.831 100.665 293.757 100.665C296.72 100.665 299.331 99.9611 301.59 98.5537C303.849 97.1464 305.618 95.1928 306.895 92.6929C308.173 90.193 308.812 87.2951 308.812 83.9989ZM348.629 67.4443C349.074 67.7405 349.333 68.1202 349.407 68.5831C349.481 69.046 349.37 69.4997 349.074 69.9441C348.814 70.2774 348.481 70.4626 348.074 70.4996C347.666 70.5367 347.277 70.4626 346.907 70.2774C345.5 69.3516 343.991 68.6294 342.38 68.1109C340.768 67.5924 339.037 67.3332 337.185 67.3332C334.926 67.3332 332.824 67.7313 330.88 68.5275C328.936 69.3238 327.241 70.4719 325.797 71.9718C324.353 73.4717 323.232 75.2401 322.436 77.2771C321.64 79.314 321.242 81.5546 321.242 83.9989C321.242 86.5173 321.649 88.8042 322.464 90.8597C323.279 92.9151 324.418 94.6835 325.88 96.1649C327.343 97.6464 329.038 98.7759 330.963 99.5537C332.889 100.331 334.963 100.72 337.185 100.72C339 100.72 340.713 100.461 342.324 99.9425C343.935 99.424 345.444 98.7204 346.852 97.8315C347.222 97.6093 347.62 97.526 348.046 97.5815C348.472 97.6371 348.814 97.85 349.074 98.2204C349.407 98.6278 349.527 99.0629 349.435 99.5259C349.342 99.9888 349.092 100.35 348.685 100.609C347.759 101.202 346.666 101.757 345.407 102.276C344.148 102.794 342.815 103.211 341.407 103.526C340 103.84 338.593 103.998 337.185 103.998C334.519 103.998 332.019 103.516 329.686 102.553C327.353 101.591 325.279 100.23 323.464 98.4704C321.649 96.7112 320.233 94.6095 319.214 92.1652C318.196 89.7208 317.686 86.9988 317.686 83.9989C317.686 81.1102 318.186 78.4529 319.186 76.0271C320.186 73.6013 321.575 71.4996 323.353 69.7219C325.13 67.9442 327.204 66.5554 329.575 65.5555C331.945 64.5555 334.482 64.0556 337.185 64.0556C339.296 64.0556 341.333 64.3518 343.296 64.9444C345.259 65.537 347.037 66.3702 348.629 67.4443ZM358.309 64.5555C358.754 64.5555 359.152 64.7222 359.504 65.0555C359.855 65.3888 360.031 65.7962 360.031 66.2777V101.72C359.994 102.202 359.8 102.609 359.448 102.942C359.096 103.276 358.698 103.442 358.254 103.442C357.735 103.442 357.319 103.276 357.004 102.942C356.689 102.609 356.532 102.202 356.532 101.72V66.2777C356.532 65.7962 356.698 65.3888 357.032 65.0555C357.365 64.7222 357.791 64.5555 358.309 64.5555ZM384.363 64.5555C384.882 64.5555 385.299 64.7222 385.613 65.0555C385.928 65.3888 386.086 65.7962 386.086 66.2777V101.72C386.048 102.202 385.873 102.609 385.558 102.942C385.243 103.276 384.826 103.442 384.308 103.442C383.826 103.442 383.419 103.276 383.086 102.942C382.752 102.609 382.586 102.202 382.586 101.72V66.2777C382.586 65.7962 382.762 65.3888 383.113 65.0555C383.465 64.7222 383.882 64.5555 384.363 64.5555ZM358.031 81.9435H384.419L384.363 85.1655H357.809L358.031 81.9435Z" fill="black"/>
<path d="M177.522 5.14239L140.061 97.8608C139.233 99.9091 140.223 102.24 142.271 103.068C144.32 103.895 146.651 102.906 147.478 100.858L184.939 8.13924C185.767 6.09096 184.777 3.75964 182.729 2.93208C180.68 2.10452 178.349 3.09411 177.522 5.14239Z" fill="black"/>
</svg>
